<svg xmlns="http://www.w3.org/2000/svg" width="173" height="54" viewBox="0 0 173 54" fill="none"><path d="M128.404 0.105445C131.675 -0.0849828 134.973 -0.0461486 138.216 0.46105C140.424 0.816655 142.659 1.17807 144.732 2.04673C142.448 2.0389 140.162 1.8893 137.878 2.00976C129.132 2.52858 120.654 5.32878 112.918 9.31041C105.81 12.9695 99.3101 17.7245 93.5176 23.1888C97.3642 17.0191 102.319 11.4518 108.369 7.31668C114.248 3.21652 121.234 0.700058 128.404 0.105445Z" fill="currentColor"></path><path d="M124.1 5.57166C130.759 3.3001 137.831 2.05057 144.884 2.3168C143.142 2.75118 140.999 3.36766 139.476 4.22896C137.106 5.49591 135.217 7.49159 133.827 9.75344C131.834 12.9131 130.356 16.4944 127.477 19.0109C125.032 21.2883 121.706 22.324 118.433 22.7243C118.49 22.7243 118.608 22.7263 118.665 22.7263C116.823 22.8798 114.97 22.8001 113.124 22.9071C111.489 23.0139 109.855 22.8642 108.222 22.8448C104.824 22.8351 101.299 22.8176 98.1033 24.1215C97.0635 24.514 96.1397 25.1398 95.2414 25.7791C95.4458 24.378 96.3048 23.1926 97.152 22.0947C99.0409 19.8562 101.441 18.1248 103.782 16.3837C109.928 11.7608 116.788 8.04931 124.1 5.57166Z" fill="currentColor"></path><path d="M92.4582 24.7492C93.441 24.4713 94.3373 23.9719 95.2277 23.4861C94.5436 24.7667 93.4528 25.884 93.2346 27.3648C92.9496 31.5077 93.0125 35.6642 93.0085 39.8168C93.0361 41.8921 92.9987 43.9675 93.1108 46.0409C93.0951 47.784 92.7019 49.5872 91.6366 51.0116C90.4278 52.6789 88.4033 53.6117 86.3865 53.8856C83.7103 54.0893 80.7021 53.9583 77.9859 53.961V53.4237C78.326 53.1886 78.7032 52.9276 79.1219 52.8537C81.1975 52.4243 83.4382 52.8071 85.3998 51.8764C86.2883 51.476 86.8898 50.5627 86.9153 49.5989C86.99 47.9919 86.9409 46.3809 86.9153 44.7739C86.1684 45.4249 85.4509 46.2236 84.4406 46.4548C82.593 46.7094 80.6373 46.6277 78.9312 45.8174C76.7337 44.8089 75.2615 42.7297 74.3455 40.5786C73.119 37.3023 73.2861 33.4314 75.1356 30.4117C76.7848 27.5066 80.313 25.6955 83.6643 26.2649C85.0264 26.5098 86.0681 27.5085 86.8996 28.5385C86.9448 28.0002 86.9468 27.4463 87.1256 26.9295C87.4185 26.2124 88.1752 25.8393 88.875 25.6023C90.0484 25.237 91.2867 25.1281 92.4582 24.7492ZM83.0687 28.2275C82.4122 28.4315 81.7813 28.7794 81.3351 29.304C80.541 30.2212 80.2501 31.4319 80.0123 32.5881C79.5386 35.2425 79.4737 38.0154 80.1636 40.6408C80.4958 41.8028 80.9813 43.0348 82.023 43.7538C82.8073 44.3542 83.8903 44.5815 84.8416 44.2784C85.7143 43.8995 86.2195 43.0037 86.479 42.137C87.0117 40.3784 86.9291 38.5207 86.9409 36.7077C86.9409 34.7451 86.9664 32.761 86.5045 30.8392C86.2824 29.9414 85.8913 29.0223 85.1286 28.4432C84.5331 28.0332 83.7448 28.0546 83.0687 28.2275Z" fill="currentColor"></path><path d="M105.863 26.2318C106.606 25.7149 107.536 25.6353 108.415 25.5692C108.981 25.5323 109.588 25.5245 110.089 25.8354C110.038 27.2132 110.078 28.5928 110.066 29.9726C108.827 29.0611 107.139 29.3157 105.787 29.8248C104.122 30.4253 103.406 32.2888 103.385 33.9172L103.365 46.0953H97.2738V35.1453C97.266 33.2896 97.376 31.3949 96.8905 29.5839C96.6134 28.5618 95.9196 27.734 95.2414 26.945C96.808 26.6322 98.3824 26.3368 99.9667 26.1366C100.981 26.0764 102.174 25.9831 102.966 26.739C103.513 27.355 103.338 28.2547 103.399 29.0087C104.151 28.0313 104.753 26.8692 105.863 26.2318Z" fill="currentColor"></path><path d="M114.028 27.6892C116.12 26.0239 118.93 25.5323 121.551 25.7499C123.508 25.9443 125.34 26.9509 126.596 28.4374C127.842 29.8248 128.491 31.6281 128.778 33.4373C124.636 34.302 120.491 35.1492 116.359 36.0567C116.377 38.0874 116.912 40.1724 118.248 41.7581C119.304 43.0289 120.859 43.985 122.565 43.9811C124.544 44.0705 126.343 43.0775 127.868 41.9291C127.115 43.8043 125.417 45.2015 123.524 45.8757C119.811 47.1854 115.365 46.2372 112.578 43.4661C110.815 41.4744 110.16 38.7228 110.243 36.1267C110.223 32.9728 111.453 29.6635 114.028 27.6892ZM117.898 28.1828C116.584 30.0192 116.513 32.3685 116.336 34.5313C116.9 34.508 117.462 34.4322 118.014 34.3039C120.281 33.789 122.567 33.3673 124.833 32.8504C124.65 31.1365 124.403 29.2672 123.188 27.936C121.871 26.3912 119.042 26.4728 117.898 28.1828Z" fill="currentColor"></path><path d="M133.198 27.5901C135.028 26.2027 137.385 25.6644 139.661 25.7053C141.762 25.6469 143.86 26.533 145.291 28.0507C146.733 29.4925 147.523 31.4571 147.834 33.4373C143.691 34.2962 139.541 35.1395 135.408 36.0548C135.484 37.4228 135.604 38.8355 136.239 40.0811C137.108 41.8979 138.708 43.5653 140.797 43.8839C143.026 44.3134 145.273 43.2932 146.91 41.8474C146.421 43.3515 145.179 44.5038 143.846 45.3044C139.962 47.4108 134.745 46.55 131.634 43.4759C129.859 41.4841 129.226 38.7227 129.293 36.1247C129.277 32.9223 130.541 29.5489 133.198 27.5901ZM138.781 26.9333C137.688 27.2132 136.829 28.0954 136.394 29.1039C135.636 30.812 135.494 32.7105 135.404 34.5526C136.048 34.4885 136.689 34.3933 137.32 34.2553C139.506 33.7637 141.703 33.3362 143.889 32.8445C143.689 31.0063 143.396 28.9387 141.926 27.6368C141.1 26.84 139.86 26.7371 138.781 26.9333Z" fill="currentColor"></path><path d="M147.685 26.9236C149.33 26.6263 150.965 26.2299 152.64 26.1211C153.534 26.0647 154.541 26.1444 155.217 26.7973C155.616 27.149 155.657 27.7087 155.785 28.1887C156.697 27.7592 157.481 27.0946 158.444 26.7701C160.105 26.1735 161.929 26.0201 163.676 26.2649C167.106 26.807 169.754 30.0153 169.892 33.3984C169.953 34.753 169.962 36.1085 169.967 37.4642L169.997 46.0953H163.875L163.875 37.3931C163.875 35.2851 163.796 33.1777 163.694 31.0724C163.606 29.8637 163.016 28.5268 161.799 28.0701C159.901 27.4697 157.742 28.3752 156.728 30.0425C155.932 31.2647 155.785 32.7513 155.738 34.1699V46.0953H149.616L149.617 33.4042C149.593 31.9584 149.754 30.4486 149.188 29.0748C148.872 28.245 148.247 27.5941 147.685 26.9236Z" fill="currentColor"></path><path d="M133.827 9.75344C135.217 7.49159 137.106 5.49591 139.476 4.22896C139.838 4.05599 140.255 4.12401 140.646 4.11428C142.753 4.11236 144.846 4.51072 146.855 5.12478C148.076 5.4901 149.143 6.24208 149.927 7.23315C147.82 6.28483 145.42 6.60547 143.268 7.21177C140.227 8.25334 138.051 10.7503 136.027 13.0997C133.837 15.7716 131.518 18.4513 128.471 20.1963C125.525 21.9451 122.058 22.5903 118.665 22.7263C118.608 22.7263 118.49 22.7243 118.433 22.7243C121.706 22.324 125.032 21.2883 127.477 19.0109C130.356 16.4944 131.834 12.9131 133.827 9.75344Z" fill="currentColor"></path><path d="M0 17.295C6.67504 17.2912 13.3481 17.2873 20.0232 17.297C20.037 19.6249 20.0134 21.951 20.035 24.277C19.5456 22.9498 18.1441 22.2832 16.8095 22.1123C14.2169 21.778 11.5949 21.8713 8.98851 21.8966C8.94923 23.8223 8.97675 25.7499 8.97279 27.6757C10.9639 27.6621 12.957 27.6698 14.9481 27.6718C14.9481 29.3216 14.9501 30.9733 14.9481 32.623C13.6017 32.6775 12.2553 32.6095 10.9089 32.6522C10.3546 32.66 9.77869 32.8465 9.42093 33.2857C9.04161 33.7482 8.9728 34.3681 8.95118 34.9432C8.9728 38.8258 8.99051 42.7083 8.94923 46.5889C6.565 46.6316 4.18076 46.585 1.79652 46.6336C1.78082 38.6606 1.78868 30.6857 1.79458 22.7127C1.79062 20.789 1.37789 18.7388 0 17.295Z" fill="currentColor"></path><path d="M60.8716 21.9782C62.6701 20.9638 64.787 20.754 66.7938 20.4197C66.7899 22.1278 66.7918 23.8378 66.7918 25.5478C68.2601 25.5478 69.7264 25.5537 71.1927 25.542C71.1986 27.1646 71.1967 28.7852 71.1967 30.4078C70.1844 30.4544 69.1525 30.3009 68.1559 30.5088C67.2871 30.7071 66.7977 31.599 66.8193 32.4326C66.7564 34.7645 66.8095 37.0983 66.7918 39.4301C66.8134 40.5436 66.7407 41.692 67.1123 42.7627C67.3147 43.3262 67.9122 43.6099 68.4645 43.7479C69.5967 44.0083 70.7643 43.8198 71.9062 43.7324C71.8984 44.7176 71.8944 45.7008 71.9082 46.688C70.0213 47.0883 68.0754 47.2418 66.157 46.9853C64.2622 46.7735 62.2317 46.2663 60.8932 44.8283C60.0205 43.9014 59.6529 42.6131 59.6824 41.3655C59.6903 37.7279 59.7119 34.0902 59.7237 30.4544C58.5699 30.4486 57.4161 30.4233 56.2623 30.4078C56.2623 28.7891 56.2702 27.1685 56.2603 25.5498C57.3886 25.5517 58.5168 25.5439 59.645 25.5537C59.6333 24.2886 59.6234 22.7146 60.8716 21.9782Z" fill="currentColor"></path><path d="M25.1651 25.3807C28.2432 24.7919 31.622 25.2816 34.2126 27.0908C36.4947 28.6355 37.8803 31.2278 38.2951 33.8939C38.7806 36.9447 38.4582 40.291 36.65 42.8909C34.8396 45.5473 31.5984 46.9736 28.426 47.1271C25.403 47.2981 22.2168 46.5228 19.8817 44.5524C17.7373 42.6946 16.6857 39.8615 16.5344 37.0963C16.383 34.2884 17.0198 31.3541 18.7259 29.0592C20.2571 27.0324 22.6924 25.8452 25.1651 25.3807ZM26.7336 27.7009C25.629 27.9244 24.8152 28.8416 24.4516 29.8598C23.6399 32.044 23.7912 34.4147 23.7617 36.6999C23.7971 38.614 23.6811 40.6602 24.6344 42.3974C25.5563 44.0491 27.9405 44.2823 29.4736 43.3865C30.7768 42.5159 31.0756 40.8506 31.2328 39.4145C31.3783 37.2867 31.3527 35.1493 31.2407 33.0214C31.0893 31.5018 30.8712 29.8656 29.8648 28.6395C29.1198 27.7398 27.8481 27.4755 26.7336 27.7009Z" fill="currentColor"></path><path d="M47.5647 28.0565C48.7185 25.5225 52.0069 24.6539 54.5287 25.5265C54.5385 27.1529 54.5306 28.7794 54.5346 30.4059C52.5553 29.6111 50.059 29.9706 48.5731 31.5465C47.8988 32.2441 47.8556 33.2682 47.8359 34.1776C47.834 38.3186 47.8438 42.4615 47.832 46.6025C45.4517 46.6316 43.0695 46.5811 40.6891 46.5947C40.6852 41.7444 40.6891 36.8942 40.6872 32.044C40.7226 30.0483 40.0346 27.9341 38.3423 26.7274C40.5221 26.2823 42.6862 25.6333 44.9289 25.6139C45.662 25.6392 46.4954 25.7072 47.032 26.2687C47.4704 26.7526 47.4723 27.4463 47.5647 28.0565Z" fill="currentColor"></path><path fill-rule="evenodd" clip-rule="evenodd" d="M170.911 24.6209C172.065 24.6209 173 25.5457 173 26.6865C173 27.8273 172.065 28.7521 170.911 28.7521C169.757 28.7521 168.821 27.8273 168.821 26.6865C168.821 25.5457 169.757 24.6209 170.911 24.6209ZM170.911 25.034C171.834 25.034 172.582 25.7738 172.582 26.6865C172.582 27.5992 171.834 28.339 170.911 28.339C169.987 28.339 169.239 27.5992 169.239 26.6865C169.239 25.7738 169.987 25.034 170.911 25.034ZM169.931 27.7631V25.6098H170.857C171.09 25.6098 171.259 25.6294 171.365 25.668C171.471 25.7066 171.555 25.7753 171.618 25.874C171.682 25.9732 171.714 26.086 171.714 26.2133C171.714 26.3752 171.666 26.5086 171.57 26.6138C171.474 26.7191 171.331 26.7853 171.141 26.8128C171.236 26.8674 171.314 26.9276 171.375 26.9933C171.437 27.0589 171.52 27.1757 171.625 27.3431L171.89 27.7631H171.364L171.049 27.293C170.936 27.1261 170.858 27.0208 170.816 26.9772C170.775 26.9341 170.731 26.904 170.684 26.888C170.637 26.8719 170.563 26.8639 170.461 26.8639H170.372V27.7631L169.931 27.7631ZM170.372 26.5211H170.698C170.909 26.5211 171.04 26.512 171.093 26.4945C171.145 26.4769 171.186 26.4464 171.216 26.4033C171.246 26.3602 171.26 26.306 171.26 26.2414C171.26 26.1687 171.241 26.1105 171.202 26.0654C171.163 26.0209 171.107 25.9928 171.036 25.9812C171 25.9762 170.893 25.9737 170.715 25.9737H170.372L170.372 26.5211Z" fill="currentColor"></path></svg>