<svg xmlns="http://www.w3.org/2000/svg" width="168" height="58" viewBox="0 0 168 58" fill="none"><path d="M8.14008 27.6284C2.61626 34.517 1.34775 44.2933 6.00556 45.7465C11.3236 47.456 18.1997 39.1924 19.7274 35.4455C21.5197 30.9167 22.1867 26.0301 19.3463 23.5695C16.4693 21.1435 11.7047 29.4131 10.7343 31.8392C9.51303 32.2323 8.27425 31.6685 7.60721 31.3107C6.94018 30.9167 7.13076 30.071 7.53022 29.1312C7.69336 28.6817 7.91672 28.1486 8.14008 27.6284L9.36133 24.846C10.4515 23.1786 14.7098 17.5763 20.8709 20.4097C26.7607 24.1506 24.4737 33.7359 22.5503 37.7008C20.6621 41.6297 11.3236 52.1547 4.09975 48.7544C-3.16065 45.3886 0.079237 27.7216 7.14905 23.4169C7.61941 23.6725 8.2651 24.5348 9.36133 24.846L8.14008 27.6284ZM38.8634 20.1857C37.1481 19.6399 35.8141 21.1435 35.3551 22.2892C34.8604 23.3988 35.426 25.2107 36.8051 25.449C39.2445 25.9361 41.626 22.0825 38.8634 20.1857Z" fill="currentColor"></path><path d="M56.3191 30.5589C56.4022 30.5995 56.4945 30.6205 56.6256 30.6348C59.2556 31.0107 60.2085 27.9096 59.8274 27.1758C59.4813 26.4737 56.8604 27.7367 56.3191 30.5589L53.805 29.3575C54.5643 26.9819 56.005 25.24 58.1495 24.5446C61.1607 23.4928 62.6853 26.1241 62.4947 28.3794C62.3064 30.5882 60.1978 34.1268 56.0912 34.0178C56.0592 36.4085 56.6965 38.3173 61.5799 38.8285C59.5903 41.1012 52.9291 42.3138 53.1166 33.4923C52.1288 33.122 51.2419 32.53 50.5262 31.7632C49.4391 35.2395 45.1518 41.2538 41.9119 40.8599C40.6724 40.7847 39.6249 39.469 40.0061 37.5505C38.2909 40.502 32.1922 44.9188 31.2393 40.408C29.9053 42.3815 28.094 44.3549 26.5129 44.3173C24.8541 44.3549 23.4255 41.1598 24.6818 34.5441C25.9023 28.0035 29.2375 20.2037 32.0009 17.1026C33.1444 18.4183 34.2879 20.5796 34.7468 21.9892C32.3821 24.2446 27.9987 30.2589 27.3499 37.4009C27.1411 39.5623 27.1411 40.502 28.1123 40.4847C29.0469 40.502 32.9538 32.2323 33.8297 27.7043C34.669 28.2855 36.3843 29.2252 37.6414 29.6567C36.0031 32.6082 33.6209 38.2466 35.2797 38.6782C36.8607 39.1864 40.5778 32.5143 42.6742 26.8759C43.7217 27.6276 45.2463 28.4734 46.3334 29.0553C44.3895 32.1384 42.7688 35.9913 43.6653 36.2732C44.484 36.5551 47.1521 33.8299 48.3917 29.5838C47.6294 28.7553 47.82 27.7216 48.3139 26.6496C48.7721 25.6542 49.4391 25.2783 50.7557 26.424C51.5775 27.0841 52.557 28.3441 53.805 29.3575L56.3191 30.5589Z" fill="currentColor"></path><path d="M82.2398 39.5066C81.5727 40.9982 80.8935 42.3078 80.334 43.1889C74.0265 52.0607 62.6869 54.692 59.1436 54.8416C55.6353 55.0679 54.4476 52.372 56.2459 50.1813C58.0176 47.9259 66.734 41.5801 74.923 40.3321C77.8587 39.8532 80.241 39.6066 82.2398 39.5066H84.8332C88.2515 39.6119 90.5598 40.2908 93.3713 41.1606C92.6089 40.502 91.0843 38.2466 90.3982 37.0257C88.9368 36.8491 87.4983 36.7401 86.1292 36.6498C88.3681 31.4806 90.0147 26.4857 90.1695 25.2964C90.322 23.3049 87.9389 22.929 86.5103 23.9454C85.0802 24.9964 82.2215 27.1578 77.9723 30.9348C73.6453 34.6757 71.5489 34.6757 70.4237 33.7186C69.2619 32.7962 70.0242 28.8493 72.2548 26.5C79.0776 19.17 86.0331 19.17 91.313 19.8842L94.8182 14.6217C75.0747 13.8136 66.9749 27.4397 66.7668 31.5369C66.609 35.3598 68.309 37.119 71.186 37.1753C74.0265 37.3069 83.1744 31.0107 86.0514 28.4561C85.777 30.4852 84.7288 33.651 83.538 36.6491C63.4964 36.8897 52.9199 48.9889 52.0532 51.0097C51.0583 53.3087 50.5849 58.075 57.083 57.9991C68.7855 57.8871 76.8852 52.5306 81.251 45.9705C82.4898 44.1204 83.7042 41.856 84.8332 39.5066H82.2398Z" fill="currentColor"></path><path d="M131.867 33.342C132.099 34.0088 132.655 34.4877 133.773 34.4697C136.345 34.4877 140.634 30.4476 142.616 28.7561C144.636 27.0646 147.018 26.218 148.18 26.9518C149.305 27.7216 149.781 28.5681 149.248 30.4085C153.403 29.6951 155.784 30.9167 159.006 32.8902C162.264 34.8636 165.123 35.0515 168 34.3937L165.487 37.8535C163.979 37.8707 161.883 38.7165 158.929 36.4228C155.975 34.2058 154.069 33.36 151.687 32.9668C149.305 32.6082 147.208 34.3937 145.588 35.974C143.968 37.5888 142.825 37.5888 142.387 37.4009C141.872 37.2129 141.205 35.9913 142.768 34.1682C143.968 32.7022 145.112 31.3866 144.445 31.0107C143.778 30.6348 142.253 32.1384 140.862 33.266C137.203 36.5551 134.249 36.837 132.933 36.7258C132.015 36.6784 129.952 36.1852 129.047 34.4704C123.451 36.4995 122.236 35.1192 121.879 33.4157C120.908 34.5817 118.049 37.025 115.554 36.0469C114.655 35.7357 114.169 35.0395 114.03 34.0945C112.224 35.5041 110.399 36.5844 109.226 35.671C107.758 34.6757 108.997 31.5745 110.751 28.529L109.836 28.3035C106.805 33.8299 102.612 36.2732 101.603 36.4228C100.516 36.6491 98.5154 36.7431 97.8659 34.4704C95.2748 36.0853 93.1784 36.931 91.4632 35.8214L93.2165 33.266C94.1313 33.8299 95.7513 32.3263 97.4848 30.5589C99.1817 28.7553 100.421 27.8156 99.7718 26.6496C98.8006 25.7482 96.7522 27.1112 94.8936 28.832C93.1311 30.4995 92.4252 32.8195 93.2165 33.266L91.4632 35.8214C89.7479 34.6756 89.0809 32.4203 91.3107 28.7553C94.5125 23.5868 100.421 23.1169 102.364 24.2446C102.364 24.2446 102.898 23.3988 103.965 22.4418C104.804 22.929 105.947 24.3386 106.71 25.449C102.993 28.0035 100.706 32.5143 101.373 33.0398C102.04 33.6419 103.279 32.7962 104.651 31.3106C107.663 28.3794 108.139 25.5602 108.693 22.5147C109.568 22.6471 111.188 23.0229 112.046 23.6424C110.235 26.218 113.094 26.218 116.086 26.0481C111.188 31.1047 111.379 32.8902 111.969 33.266C112.413 33.5683 112.949 33.672 114.03 32.8142L117.079 32.6639C118.335 33.5014 123.386 28.9433 122.186 26.9525C121.195 26.218 118.908 28.0975 117.993 29.2808C117.002 30.5408 116.647 32.4534 117.079 32.6639L114.03 32.8142C114.215 31.4482 114.875 29.8221 115.858 28.1531C117.955 24.7145 123.1 23.0229 123.785 24.6205C125.006 21.9892 130.056 14.2834 133.314 11.165C134.153 11.0883 135.964 11.0883 137.965 11.3883C132.438 15.881 126.816 24.7145 125.768 27.1758C124.72 29.6011 123.767 32.3263 125.997 32.8902C126.605 33.0578 127.534 32.8841 128.588 32.5143C128.55 32.109 128.6 31.6332 128.74 31.0874C129.77 26.5939 133.868 24.2446 136.363 24.5446C138.823 24.8084 139.394 26.406 139.109 28.0035C138.868 29.3515 136.173 31.437 131.866 33.3427L131.789 31.1603C133.111 30.4611 134.267 29.7717 134.764 29.5071C135.869 28.8493 136.632 27.7216 135.908 27.1758C134.705 26.2977 132.152 29.1312 131.867 30.5589C131.828 30.7288 131.789 30.9348 131.789 31.1603L131.866 33.3427" fill="currentColor"></path><path d="M69.204 7.78121C69.4746 8.08193 69.0225 8.73899 68.5164 9.50882C68.0216 10.3365 67.3073 10.971 67.1465 10.862C66.9254 10.7357 67.0214 9.98395 67.4499 9.28554C67.8791 8.57435 68.7123 7.61131 69.2032 7.78197L70.7279 6.27839C69.8321 5.26197 68.3075 5.35595 67.2974 5.9025C66.2644 6.45431 63.8197 9.10361 64.6292 12.216C63.2212 11.9754 61.846 10.8853 60.6667 10.111C59.3501 9.30283 57.1112 9.16224 56.2444 10.0373C55.5385 10.7124 54.9668 10.3365 55.4821 9.50882C55.8251 8.59164 56.1461 7.80828 56.6256 6.80389L57.7691 4.84774C58.9812 3.10961 60.6072 1.47071 60.6659 2.59238C60.7589 3.7148 59.7519 4.46057 57.7691 4.84774L56.6256 6.80389C59.2099 6.32275 61.2887 5.74387 62.0366 5.14996C62.9712 4.41621 64.4958 1.31584 62.7242 0.337016C60.6873 -0.661358 57.5404 0.563304 55.5568 3.94635C55.2946 4.35983 55.059 4.78609 54.8715 5.22438C54.2105 5.26197 53.5343 5.28528 52.8132 5.29956L53.9567 1.08955C52.2033 1.78496 50.6787 1.9729 49.8394 2.06688L49.3057 5.29956C46.9623 5.30934 44.5236 5.26197 42.5972 5.22438C42.0072 6.67157 41.7213 7.51734 41.1496 8.90965C42.6925 8.87732 46.0094 8.44579 48.9253 8.00525L47.5524 17.4026L49.7646 16.8763L52.2041 7.55568C52.9268 7.43539 53.5107 7.34442 53.8797 7.25346C52.7248 10.0133 51.768 13.1354 50.7564 16.5004C52.4892 16.3508 53.9186 15.9749 55.7116 13.7963C57.5396 11.6522 59.8266 12.0281 62.7989 13.4204C63.7747 13.9135 64.6514 14.0195 65.467 13.8692C67.0184 16.0276 69.9785 16.1516 72.0238 15.5231L73.396 13.1174C70.4367 14.7826 68.617 13.9489 67.6786 12.8919C68.2686 12.4333 68.8221 11.8957 69.3557 11.3883C71.0709 9.67872 71.5474 7.32939 70.7279 6.27839L69.2032 7.78197" fill="currentColor"></path></svg>