<svg xmlns="http://www.w3.org/2000/svg" width="169" height="67" viewBox="0 0 169 67" fill="none"><path d="M51.7868 41.7101C51.6183 41.7382 51.4499 41.7382 51.2815 41.7382C48.7273 41.7382 47.5203 40.5312 47.5203 37.9489V28.3494H53.9481V23.7742H47.5203V19.3674H42.6644V23.7742H36.6577L30.9878 39.0155L25.2057 23.7742H19.8726L21.4445 27.7038C19.2271 24.925 15.7746 23.2128 11.9853 23.2128C5.38919 23.2128 0 28.4055 0 34.7491C0 41.1207 5.38919 46.3134 11.9853 46.3134C16.9816 46.3134 21.3603 43.3942 23.1567 38.9032L23.269 38.5945H17.964C16.6167 40.5593 14.3992 41.7101 11.9853 41.7101C7.99958 41.7101 4.77168 38.5945 4.77168 34.7771C4.77168 30.9598 7.99958 27.8442 11.9853 27.8442C14.3712 27.8442 16.5886 28.995 17.9359 30.9317H22.7076L28.3775 45.0783L28.2652 45.4152C27.5073 47.408 26.6372 48.0536 24.7566 48.0536C24.532 48.0536 24.3075 48.0536 24.0549 48.0256L23.3251 47.9694V52.4043L23.9145 52.4604C24.4198 52.5166 24.8969 52.5446 25.346 52.5446C29.0511 52.5446 31.3527 50.8605 32.8123 47.0712L40.0821 28.3775H42.6083V37.977C42.6083 43.0013 45.7239 46.2572 50.5517 46.2572C50.9728 46.2572 51.3938 46.2292 51.8429 46.173L53.92 46.0888V41.682L51.7868 41.7101Z" fill="currentColor"></path><path d="M167.823 23.8303L167.037 25.9355L166.251 23.8303H165.661V26.4688H166.111V24.5601L166.84 26.4688H167.261L167.991 24.5601V26.4688H168.412V23.8303H167.823ZM147.164 31.8018C148.343 29.3879 150.841 27.8161 153.648 27.8161C156.455 27.8161 158.953 29.3879 160.132 31.8018H147.164ZM165.437 32.8685C165.409 32.8123 165.409 32.7281 165.409 32.672C165.184 31.465 164.763 30.3423 164.174 29.3037C164.174 29.3037 164.174 29.3037 164.174 29.2757C163.893 28.6862 163.22 27.8442 163.22 27.8442C161.03 25.0373 157.55 23.2128 153.62 23.2128C148.119 23.2128 143.487 26.7775 142.084 31.6334C141.831 26.4407 138.575 23.2409 133.467 23.2409C130.688 23.2409 128.33 24.3075 126.758 26.2723C125.214 24.3075 122.885 23.2409 120.106 23.2409C118.197 23.2409 116.008 24.0549 114.801 25.2057V23.7461H111.657V23.7181L111.629 23.7461H108.065L102.395 38.9874L96.6125 23.7461H76.2627V28.3213H87.5182L76.2346 41.654V45.7801H94.6477V41.1768H82.8027L93.3565 28.8266L99.8404 45.0503L99.7281 45.3871C98.9703 47.38 98.1001 48.0256 96.2195 48.0256C96.023 48.0256 95.7704 48.0256 95.5178 47.9975L94.788 47.9413V52.3762L95.3775 52.4323C95.8546 52.4885 96.3599 52.5165 96.7809 52.5165C100.486 52.5165 102.788 50.8324 104.247 47.0151L110.282 31.1001V45.752H115.194V32.4193C115.194 29.6967 117.103 27.6477 119.629 27.6477C123.081 27.6477 123.783 30.1177 123.783 32.1948V45.752H128.611V32.4193C128.611 29.6405 130.463 27.6477 132.99 27.6477C135.768 27.6477 137.2 29.1634 137.2 32.1948V45.752H142.084V37.9489C143.543 42.7486 148.147 46.2853 153.592 46.2853C158.504 46.2853 162.855 43.4504 164.679 39.0716L164.904 38.5664H159.514C158.167 40.5312 155.95 41.682 153.564 41.682C150.224 41.682 147.333 39.4365 146.575 36.3209H165.437C165.521 35.7876 165.549 35.2824 165.549 34.721C165.549 34.1877 165.493 33.6544 165.409 33.1211C165.465 33.0649 165.465 32.9527 165.437 32.8685ZM164.539 26.4688V24.2233H165.297V23.8303H163.304V24.2233H164.09V26.4688H164.539Z" fill="currentColor"></path><path d="M69.2174 13.6975C66.9158 15.9992 65.6527 19.0306 65.6527 22.2023V22.2304H65.6808C68.9648 22.0901 72.0243 20.7428 74.3259 18.4411C76.6276 16.1395 77.8907 13.1081 77.8907 9.93632V9.90825H77.8626C74.5786 10.0486 71.5191 11.3959 69.2174 13.6975Z" fill="currentColor"></path><path d="M52.3201 9.90825C52.292 13.1081 53.5551 16.1395 55.8567 18.4411C58.1303 20.7428 61.2178 22.0901 64.5019 22.2304H64.5299V22.2023C64.5299 19.0025 63.2669 15.9992 60.9652 13.6975C58.6917 11.3959 55.6041 10.0486 52.3201 9.90825Z" fill="currentColor"></path><path d="M65.1194 0H65.0913C61.1056 4.04189 60.4319 10.1609 63.4633 14.9045C64.1651 15.943 64.6984 17.0658 65.0913 18.2166L65.1194 18.3008L65.1475 18.2166C65.5124 17.0658 66.0457 15.9711 66.7193 14.9606C69.7788 10.217 69.1332 4.06996 65.1194 0Z" fill="currentColor"></path><path d="M75.5329 27.7319L65.6527 22.2304V23.7461C65.6808 25.8513 66.8035 27.6757 68.5157 28.7424C68.5438 28.7424 68.8525 28.9388 69.0209 29.0511C71.07 30.2861 72.4173 32.5036 72.4173 35.0017C72.4173 38.8752 69.1613 42.0189 65.1194 42.0189C61.0775 42.0189 57.8215 38.8752 57.8215 35.0017C57.8215 32.5036 59.1688 30.3142 61.2178 29.0511L61.2459 29.023C61.4424 28.9108 61.5266 28.8546 61.6389 28.7985C63.3791 27.7319 64.53 25.8793 64.558 23.7461V22.2304L54.6778 27.7319C53.92 28.181 53.4428 28.995 53.4147 29.8932V40.054C53.4428 41.0084 54.0042 41.8504 54.8182 42.2995L63.9405 47.38C64.3054 47.5484 64.6984 47.6607 65.1194 47.6607C65.5966 47.6607 66.0176 47.5484 66.4106 47.3238L75.4487 42.2995C76.2627 41.8504 76.824 41.0084 76.8521 40.026V29.8932C76.796 28.995 76.2907 28.181 75.5329 27.7319Z" fill="currentColor"></path><path d="M18.8622 55.9129C18.9464 55.9129 19.0025 55.9971 19.0025 56.0813L18.8341 56.9514C18.8341 57.0075 18.778 57.0637 18.6938 57.0637H15.9992L14.6238 64.6142C14.6238 64.6703 14.5677 64.7264 14.4835 64.7264H13.4168C13.3326 64.7264 13.2765 64.6422 13.2765 64.558L14.6519 57.0637H12.0134C11.9292 57.0637 11.8731 56.9795 11.8731 56.8953L12.0134 56.0813C12.0415 55.9971 12.1257 55.9129 12.2099 55.9129H18.8622Z" fill="currentColor"></path><path d="M20.4902 59.225C19.592 59.225 18.8622 59.8986 18.6096 61.0494H21.669C21.9217 59.8144 21.5568 59.253 20.5744 59.253H20.4902V59.225ZM20.7428 58.2706C22.2866 58.2706 23.2128 59.253 22.876 61.1056L22.7918 61.6669C22.7918 61.7511 22.7076 61.7792 22.6234 61.7792H18.4973L18.4131 62.2283C18.2166 63.323 18.8902 63.8844 19.9568 63.8844H20.013C20.6024 63.8844 21.248 63.6879 22.0339 63.4072C22.1181 63.3791 22.2023 63.4353 22.1743 63.5195L22.0339 64.2212C22.0059 64.3335 21.9497 64.4177 21.8375 64.4457C21.1919 64.6984 20.3217 64.8948 19.6762 64.8948H19.5639C17.8236 64.8948 16.757 63.8002 17.0938 62.0599L17.2342 61.2459C17.571 59.3653 19.0025 58.2987 20.5744 58.2987H20.7428V58.2706Z" fill="currentColor"></path><path d="M27.5915 58.2706C28.1248 58.2706 28.7704 58.439 29.2757 58.7197C29.3879 58.7759 29.416 58.8601 29.416 58.9723L29.3037 59.646C29.2757 59.7302 29.1915 59.7863 29.1073 59.7302C28.5459 59.4495 28.1529 59.2811 27.6477 59.2811H27.5635C26.5249 59.2811 25.5987 59.9267 25.3741 61.2178L25.2338 61.9476C25.0092 63.2107 25.6829 63.8563 26.7214 63.8563H26.8056C27.3109 63.8563 27.76 63.6879 28.4336 63.4072C28.5178 63.3791 28.602 63.4353 28.5739 63.5195L28.4336 64.2212C28.4055 64.3335 28.3494 64.3896 28.2652 64.4457C27.6477 64.7264 27.0302 64.8948 26.4688 64.8948H26.3284C24.6443 64.8948 23.5496 63.7721 23.8865 61.9196L24.0268 61.1336C24.3636 59.3092 25.7671 58.2706 27.4512 58.2706H27.5915Z" fill="currentColor"></path><path d="M32.5316 55.4638C32.6158 55.4638 32.7 55.548 32.672 55.6322L31.9983 59.1127C32.7562 58.5513 33.5421 58.2706 34.1877 58.2706H34.3C35.6753 58.2706 36.3209 59.1127 36.0683 60.4881L35.3104 64.6142C35.3104 64.6984 35.2543 64.7264 35.1701 64.7264H34.1596C34.0754 64.7264 34.0193 64.6422 34.0193 64.558L34.721 60.6565C34.8894 59.7583 34.6087 59.2811 33.6824 59.2811H33.6263C33.093 59.2811 32.4474 59.5618 31.858 59.9548L31.0159 64.5861C31.0159 64.6703 30.9598 64.6984 30.8756 64.6984H29.8651C29.7809 64.6984 29.7248 64.6142 29.7248 64.53L31.3527 55.576C31.3808 55.4638 31.465 55.4076 31.5492 55.4076H32.5316V55.4638Z" fill="currentColor"></path><path d="M41.3171 58.2706C42.6925 58.2706 43.31 59.1127 43.0574 60.4881L42.2995 64.6142C42.2995 64.6703 42.2153 64.7264 42.1592 64.7264H41.1487C41.0645 64.7264 41.0084 64.6422 41.0084 64.558L41.7101 60.6565C41.8785 59.7583 41.6259 59.2811 40.6716 59.2811H40.6154C40.1102 59.2811 39.4646 59.5618 38.8752 59.9548L38.0331 64.6142C38.0331 64.6703 37.977 64.7264 37.8928 64.7264H36.8823C36.7981 64.7264 36.7139 64.6422 36.7419 64.558L37.8366 58.5794C37.8647 58.4952 37.9489 58.411 38.0331 58.411H38.8752C38.9594 58.411 39.0155 58.4671 39.0155 58.5513L38.9594 59.1127C39.7453 58.5513 40.5312 58.2426 41.2049 58.2426H41.3171V58.2706Z" fill="currentColor"></path><path d="M47.5203 59.3092C46.566 59.3092 45.8081 59.9267 45.5836 61.0775L45.3871 62.116C45.1625 63.2669 45.7239 63.8844 46.6783 63.8844H46.7625C47.7168 63.8844 48.4747 63.2669 48.6992 62.116L48.8957 61.0775C49.1202 59.9267 48.5589 59.3092 47.6045 59.3092H47.5203ZM47.7729 58.2706C49.3728 58.2706 50.5237 59.3092 50.1868 61.1617L50.0184 62.088C49.6816 63.9405 48.2501 64.8948 46.6502 64.8948H46.5098C44.9099 64.8948 43.7591 63.8563 44.0959 62.0038L44.2643 61.0775C44.6012 59.225 46.0327 58.2706 47.6326 58.2706H47.7729Z" fill="currentColor"></path><path d="M53.7516 55.4638C53.8358 55.4638 53.8919 55.548 53.8919 55.6322L52.2359 64.6422C52.2359 64.7264 52.1516 64.7545 52.0955 64.7545H51.085C51.0008 64.7545 50.9447 64.6703 50.9447 64.5861L52.5727 55.6322C52.6008 55.5199 52.685 55.4638 52.7692 55.4638H53.7516Z" fill="currentColor"></path><path d="M57.4566 59.3092C56.5023 59.3092 55.7444 59.9267 55.5199 61.0775L55.3234 62.116C55.0989 63.2669 55.6602 63.8844 56.6146 63.8844H56.6988C57.6531 63.8844 58.411 63.2669 58.6355 62.116L58.832 61.0775C59.0566 59.9267 58.4952 59.3092 57.5408 59.3092H57.4566ZM57.7373 58.2706C59.3372 58.2706 60.4881 59.3092 60.1512 61.1617L59.9828 62.088C59.646 63.9405 58.2145 64.8948 56.6146 64.8948H56.4742C54.8743 64.8948 53.7235 63.8563 54.0603 62.0038L54.2287 61.0775C54.5656 59.225 55.9971 58.2706 57.597 58.2706H57.7373Z" fill="currentColor"></path><path d="M64.5019 59.2811C63.5756 59.2811 62.93 59.8986 62.7055 61.0494L62.5371 61.9196C62.3125 63.0984 62.7055 63.6879 63.6318 63.6879H63.6879C64.1931 63.6879 64.7826 63.4633 65.4001 62.9581L65.9895 59.7302C65.5685 59.4776 65.0352 59.2811 64.558 59.2811H64.5019ZM64.6984 58.2706C65.6246 58.2706 66.607 58.6355 67.2245 58.9723C67.3368 59.0285 67.3649 59.1408 67.3649 59.253L66.4386 64.4738C66.1579 66.0457 64.951 67 63.2669 67H63.2107C62.4809 67 61.8073 66.8596 61.1336 66.579C61.0214 66.5509 60.9652 66.4386 60.9933 66.3544L61.1336 65.6527C61.1617 65.5685 61.2178 65.5404 61.3021 65.5685C61.8915 65.8492 62.4529 66.0176 63.0704 66.0176H63.1265C64.3335 66.0176 64.951 65.4843 65.1475 64.4177L65.2597 63.8563C64.5861 64.4177 63.9124 64.6703 63.2669 64.6703H63.1827C61.6108 64.6703 60.9933 63.5195 61.274 61.8634L61.4143 61.0494C61.7511 59.1969 62.9581 58.2426 64.5861 58.2426H64.6984V58.2706Z" fill="currentColor"></path><path d="M74.5505 58.439C74.6347 58.439 74.6908 58.5233 74.6347 58.5794L70.9858 65.2036C70.3963 66.2983 69.7788 67 68.5999 67H68.5157C68.2631 67 67.8421 66.9439 67.5052 66.8316C67.393 66.8035 67.3368 66.7193 67.3649 66.607L67.4772 65.9334C67.4772 65.8492 67.5614 65.8211 67.6456 65.8492C68.0105 65.9895 68.235 66.0176 68.4876 66.0176H68.5157C68.9648 66.0176 69.2736 65.793 69.6385 65.1755L69.8911 64.7545H69.7507C69.6665 64.7545 69.6104 64.6984 69.5823 64.6422L68.4876 58.6636C68.4596 58.5513 68.5438 58.4671 68.6561 58.4671H69.5823C69.6946 58.4671 69.7788 58.5233 69.7788 58.6355L70.3121 61.4705L70.5647 63.6879H70.5928L71.6313 61.4705L73.2313 58.6075C73.2874 58.5233 73.3716 58.4671 73.4839 58.4671H74.5505V58.439Z" fill="currentColor"></path><path d="M83.0272 55.7725C83.8412 55.7725 84.571 55.9971 85.0482 56.2497C85.1324 56.3058 85.1885 56.39 85.1605 56.5023L85.0201 57.3163C84.9921 57.4005 84.9078 57.4286 84.8236 57.4005C84.15 57.0917 83.729 56.9233 82.9711 56.9233H82.8869C81.3712 56.9233 79.9116 57.9057 79.5748 59.7583L79.3502 60.9652C79.0134 62.7897 79.9397 63.8002 81.4554 63.8002H81.5396C81.9887 63.8002 82.4378 63.6879 82.7746 63.5476L83.336 60.5442C83.3641 60.4319 83.4483 60.3758 83.5325 60.3758H84.5429C84.6272 60.3758 84.7114 60.46 84.6833 60.5442L84.0377 64.0809C84.0096 64.2212 83.9535 64.3054 83.8412 64.3615C83.2518 64.6984 82.2975 64.979 81.3712 64.979H81.2028C79.1538 64.979 77.4977 63.5476 77.9749 60.9933L78.1994 59.7302C78.6766 57.176 80.8098 55.8287 82.8588 55.8287H83.0272V55.7725Z" fill="currentColor"></path><path d="M89.9041 58.2706C89.9883 58.2706 90.1005 58.2706 90.2128 58.2987C90.297 58.2987 90.3532 58.3829 90.3251 58.4671L90.1567 59.3653C90.1567 59.4495 90.0725 59.4776 89.9883 59.4776C89.7918 59.4495 89.6234 59.4495 89.5111 59.4495H89.455C88.8936 59.4495 88.2199 59.7021 87.5744 60.2635L86.7884 64.6142C86.7884 64.6703 86.7323 64.7264 86.6481 64.7264H85.6376C85.5534 64.7264 85.4692 64.6703 85.4973 64.558L86.592 58.5794C86.62 58.4671 86.7042 58.411 86.7884 58.411H87.6305C87.7147 58.411 87.7708 58.4671 87.7708 58.5232L87.6866 59.253C88.3884 58.5513 89.1462 58.2145 89.8199 58.2145H89.9041V58.2706Z" fill="currentColor"></path><path d="M93.8056 59.3092C92.8513 59.3092 92.0934 59.9267 91.8689 61.0775L91.6724 62.116C91.4478 63.2669 92.0092 63.8844 92.9636 63.8844H93.0478C94.0021 63.8844 94.76 63.2669 94.9845 62.116L95.181 61.0775C95.4055 59.9267 94.8442 59.3092 93.8898 59.3092H93.8056ZM94.0863 58.2706C95.6862 58.2706 96.837 59.3092 96.5002 61.1617L96.3318 62.088C95.995 63.9405 94.5635 64.8948 92.9636 64.8948H92.8232C91.2233 64.8948 90.0725 63.8563 90.4093 62.0038L90.5777 61.0775C90.9145 59.225 92.346 58.2706 93.946 58.2706H94.0863Z" fill="currentColor"></path><path d="M107.222 58.439C107.307 58.439 107.335 58.4952 107.307 58.5794L104.331 64.6142C104.303 64.6984 104.219 64.7264 104.135 64.7264H102.928C102.844 64.7264 102.788 64.6703 102.788 64.6142L102.563 62.8458L102.282 59.7583H102.198L100.823 62.8458L99.9246 64.6422C99.8965 64.6984 99.8123 64.7545 99.7281 64.7545H98.5212C98.437 64.7545 98.3808 64.6984 98.3808 64.6422L97.623 58.6636C97.623 58.5513 97.6791 58.4671 97.7914 58.4671H98.8018C98.886 58.4671 98.9422 58.5233 98.9422 58.6075L99.2229 61.1898L99.3913 63.6318H99.4474L100.486 61.1898L101.693 58.6636C101.749 58.5513 101.833 58.4952 101.974 58.4952H103.068C103.152 58.4952 103.209 58.5513 103.209 58.6355L103.489 61.2178L103.658 63.6598H103.714L104.752 61.2178L105.959 58.6636C106.015 58.5513 106.1 58.4952 106.212 58.4952H107.222V58.439Z" fill="currentColor"></path><path d="M110.675 59.225C109.777 59.225 109.047 59.8986 108.794 61.0494H111.854C112.106 59.8144 111.742 59.253 110.759 59.253H110.675V59.225ZM110.928 58.2706C112.471 58.2706 113.398 59.253 113.061 61.1056L112.977 61.6669C112.977 61.7511 112.892 61.7792 112.808 61.7792H108.682L108.598 62.2283C108.401 63.323 109.075 63.8844 110.142 63.8844H110.198C110.787 63.8844 111.433 63.6879 112.219 63.4072C112.303 63.3791 112.387 63.4353 112.359 63.5195L112.219 64.2212C112.191 64.3335 112.134 64.4177 112.022 64.4457C111.377 64.6984 110.507 64.8948 109.861 64.8948H109.749C108.008 64.8948 106.942 63.8002 107.279 62.0599L107.419 61.2459C107.756 59.3653 109.187 58.2987 110.759 58.2987H110.928V58.2706Z" fill="currentColor"></path><path d="M118.113 58.2706C118.197 58.2706 118.31 58.2706 118.422 58.2987C118.506 58.2987 118.562 58.3829 118.534 58.4671L118.366 59.3653C118.366 59.4495 118.282 59.4776 118.197 59.4776C118.001 59.4495 117.832 59.4495 117.72 59.4495H117.664C117.103 59.4495 116.429 59.7021 115.783 60.2635L114.969 64.6422C114.969 64.6984 114.913 64.7545 114.829 64.7545H113.819C113.734 64.7545 113.65 64.6984 113.678 64.5861L114.773 58.6075C114.801 58.4952 114.885 58.439 114.969 58.439H115.811C115.896 58.439 115.952 58.4952 115.952 58.5513L115.868 59.2811C116.569 58.5794 117.327 58.2426 118.001 58.2426H118.113V58.2706Z" fill="currentColor"></path><path d="M121.818 58.2706C122.38 58.2706 123.025 58.411 123.474 58.6355C123.587 58.6636 123.643 58.7759 123.615 58.8881L123.502 59.5337C123.474 59.6179 123.39 59.6741 123.306 59.6179C122.688 59.3092 122.239 59.1688 121.762 59.1688H121.706C121.06 59.1688 120.443 59.4776 120.359 59.9828V60.039C120.246 60.5723 120.78 60.7126 121.285 60.881L121.65 60.9933C122.716 61.3582 123.446 61.7511 123.222 62.93V63.0142C122.997 64.2212 121.762 64.8668 120.471 64.8668H120.359C119.769 64.8668 119.039 64.6984 118.562 64.4738C118.45 64.4457 118.394 64.3335 118.422 64.2212L118.534 63.5756C118.562 63.4914 118.646 63.4633 118.703 63.4914C119.376 63.8002 119.881 63.9405 120.415 63.9405H120.499C121.201 63.9405 121.79 63.6318 121.902 63.0704V63.0142C122.015 62.4529 121.537 62.2845 121.032 62.116L120.667 62.0038C119.797 61.695 118.815 61.3582 119.039 60.1512V60.067C119.264 58.832 120.527 58.2426 121.678 58.2426H121.818V58.2706Z" fill="currentColor"></path><path d="M133.326 55.9129C133.411 55.9129 133.495 55.9971 133.467 56.0813L133.298 56.9514C133.298 57.0075 133.242 57.0637 133.158 57.0637H130.463L129.088 64.6142C129.088 64.6703 129.032 64.7264 128.948 64.7264H127.881C127.797 64.7264 127.741 64.6422 127.741 64.558L129.116 57.0637H126.478C126.393 57.0637 126.337 56.9795 126.337 56.8953L126.478 56.0813C126.506 55.9971 126.59 55.9129 126.674 55.9129H133.326Z" fill="currentColor"></path><path d="M135.796 58.2706C135.881 58.2706 135.993 58.2706 136.105 58.2987C136.189 58.2987 136.245 58.3829 136.217 58.4671L136.049 59.3653C136.049 59.4495 135.965 59.4776 135.881 59.4776C135.684 59.4495 135.516 59.4495 135.403 59.4495H135.347C134.786 59.4495 134.112 59.7021 133.467 60.2635L132.653 64.6422C132.653 64.6984 132.597 64.7545 132.512 64.7545H131.502C131.418 64.7545 131.333 64.6984 131.362 64.5861L132.456 58.6075C132.484 58.4952 132.568 58.439 132.653 58.439H133.495C133.579 58.439 133.635 58.4952 133.635 58.5513L133.551 59.2811C134.253 58.5794 135.01 58.2426 135.684 58.2426H135.796V58.2706Z" fill="currentColor"></path><path d="M142.477 58.439C142.561 58.439 142.617 58.5233 142.617 58.6075L141.522 64.6142C141.522 64.6703 141.466 64.7264 141.382 64.7264H140.484C140.4 64.7264 140.344 64.6703 140.344 64.5861L140.4 64.0247C139.614 64.5861 138.828 64.8948 138.154 64.8948H138.042C136.695 64.8948 136.133 64.0528 136.386 62.6774L137.144 58.6075C137.172 58.5233 137.256 58.439 137.34 58.439H138.295C138.379 58.439 138.463 58.5233 138.435 58.6075L137.733 62.509C137.565 63.4072 137.761 63.8844 138.659 63.8844H138.716C139.221 63.8844 139.866 63.6037 140.456 63.2107L141.298 58.5513C141.298 58.4952 141.354 58.439 141.438 58.439H142.477Z" fill="currentColor"></path><path d="M146.322 58.2706C146.884 58.2706 147.529 58.411 147.978 58.6355C148.09 58.6636 148.147 58.7759 148.119 58.8881L148.006 59.5337C147.978 59.6179 147.894 59.6741 147.81 59.6179C147.192 59.3092 146.743 59.1688 146.266 59.1688H146.21C145.564 59.1688 144.947 59.4776 144.863 59.9828V60.039C144.75 60.5723 145.284 60.7126 145.789 60.881L146.154 60.9933C147.22 61.3582 147.95 61.7511 147.726 62.93V63.0142C147.501 64.2212 146.266 64.8668 144.975 64.8668H144.863C144.273 64.8668 143.543 64.6984 143.066 64.4738C142.954 64.4457 142.898 64.3335 142.926 64.2212L143.038 63.5756C143.066 63.4914 143.15 63.4633 143.207 63.4914C143.88 63.8002 144.385 63.9405 144.919 63.9405H145.003C145.705 63.9405 146.294 63.6318 146.406 63.0704V63.0142C146.519 62.4529 146.041 62.2845 145.536 62.116L145.171 62.0038C144.301 61.695 143.319 61.3582 143.543 60.1512V60.067C143.768 58.832 145.031 58.2426 146.182 58.2426H146.322V58.2706Z" fill="currentColor"></path><path d="M151.571 56.8391C151.655 56.8111 151.711 56.8672 151.711 56.9514L151.431 58.439H153.087C153.171 58.439 153.255 58.5233 153.227 58.6075L153.087 59.3092C153.087 59.3653 153.003 59.4215 152.946 59.4215H151.262L150.589 63.0423C150.476 63.6037 150.673 63.8563 151.178 63.8563H151.234C151.431 63.8563 151.683 63.8002 152.132 63.6598C152.217 63.6318 152.301 63.6879 152.273 63.7721L152.16 64.4457C152.16 64.53 152.104 64.5861 152.02 64.6142C151.543 64.8106 151.15 64.8949 150.841 64.8949H150.729C149.634 64.8949 149.073 64.2773 149.269 63.2107L149.971 59.4215H149.241C149.157 59.4215 149.073 59.3653 149.101 59.253L149.213 58.6917C149.241 58.6075 149.297 58.5513 149.382 58.5233L150.168 58.411L150.392 57.2321C150.42 57.1198 150.476 57.0637 150.589 57.0356L151.571 56.8391Z" fill="currentColor"></path></svg>