<svg xmlns="http://www.w3.org/2000/svg" width="185" height="35" viewBox="0 0 185 35" fill="none"><path fill-rule="evenodd" clip-rule="evenodd" d="M17.7397 0C7.9386 0 0 7.83133 0 17.5C0 27.1687 7.9386 35 17.7397 35C27.5408 35 35.4795 27.1687 35.4795 17.5C35.51 7.86145 27.5408 0 17.7397 0ZM17.7397 31.7771C9.74006 31.7771 3.29757 25.3916 3.29757 17.5301C3.29757 9.66867 9.77059 3.28313 17.7397 3.28313C25.7089 3.28313 32.1819 9.66867 32.1819 17.5301C32.2124 25.3916 25.7394 31.7771 17.7397 31.7771Z" fill="currentColor"></path><path fill-rule="evenodd" clip-rule="evenodd" d="M5.37382 16.0241C4.1525 18.1325 4.88529 20.8133 6.99208 22.0181C7.57221 22.3494 8.18287 22.5301 8.82406 22.5904C8.54926 23.1627 8.42713 23.7651 8.42713 24.4277C8.42713 26.8675 10.4118 28.8253 12.885 28.8253C15.3581 28.8253 17.3428 26.8675 17.3428 24.4277C17.3428 24.4277 17.3428 21.0843 17.3428 19.3976C16.9153 19.3072 16.5184 19.0964 16.2131 18.7349L16.1825 18.7651C15.4803 19.1566 14.9612 19.7289 14.5948 20.3614L14.5643 20.3916L14.5338 20.3614C14.1368 20.2108 13.7399 20.1205 13.3124 20.0602H13.2514L13.2819 20C13.4651 19.6084 13.5872 19.2169 13.6483 18.7952V18.7651H13.6788C14.4422 18.7651 15.2055 18.5843 15.9077 18.1928C15.7551 17.7711 15.7551 17.3193 15.9077 16.8976L11.4804 14.3675C9.34313 13.1928 6.62568 13.9157 5.37382 16.0241Z" fill="currentColor"></path><path fill-rule="evenodd" clip-rule="evenodd" d="M22.625 28.8554C25.0982 28.8554 27.0828 26.8976 27.0828 24.4578C27.0828 23.7952 26.9302 23.1928 26.6859 22.6205C27.2966 22.5602 27.9378 22.3795 28.4874 22.0482C30.6247 20.8434 31.3575 18.1325 30.1056 16.0542C28.8843 13.9458 26.1363 13.2229 24.0295 14.4578C24.0295 14.4578 21.0984 16.1145 19.6328 16.9578C19.7854 17.3795 19.7854 17.8313 19.6328 18.253L19.6633 18.2831C20.3656 18.6747 21.1289 18.8554 21.8617 18.8554H21.8922V18.8855C21.9533 19.3072 22.0754 19.6988 22.2586 20.0904L22.2892 20.1506H22.2281C21.8006 20.1807 21.3732 20.3012 21.0068 20.4518H20.9762L20.9457 20.4217C20.5793 19.759 20.0297 19.2169 19.3274 18.7952C19.0221 19.1566 18.6252 19.3675 18.1977 19.4277V24.4578C18.1672 26.8976 20.1518 28.8554 22.625 28.8554Z" fill="currentColor"></path><path fill-rule="evenodd" clip-rule="evenodd" d="M16.5184 17.5301C16.5184 18.1928 17.068 18.7349 17.7397 18.7349C18.4115 18.7349 18.961 18.1928 18.961 17.5301C18.961 16.8675 18.4115 16.3253 17.7397 16.3253C17.068 16.3253 16.5184 16.8675 16.5184 17.5301Z" fill="currentColor"></path><path fill-rule="evenodd" clip-rule="evenodd" d="M25.2509 7.71084C24.0295 5.60241 21.2816 4.87952 19.1748 6.11446C18.5947 6.44578 18.1367 6.86747 17.7703 7.37952C17.4039 6.86747 16.9459 6.44578 16.3657 6.11446C14.2284 4.90964 11.511 5.63253 10.2897 7.71084C9.06833 9.81928 9.80112 12.5 11.9079 13.7048C11.9079 13.7048 14.8391 15.3614 16.3047 16.2048C16.5795 15.8735 16.9764 15.6325 17.4344 15.5723V15.5422C17.4344 14.759 17.2207 14.006 16.8237 13.3735L16.8543 13.3434C17.1901 13.1024 17.4649 12.8012 17.7397 12.4398L17.7703 12.3795L17.8008 12.4398C18.0451 12.8012 18.3504 13.1024 18.6863 13.3434L18.7168 13.3735L18.6863 13.4036C18.2893 14.0361 18.0756 14.7892 18.0756 15.6024C18.5336 15.6928 18.9305 15.9036 19.2053 16.2349L23.6326 13.7048C25.7699 12.5301 26.4722 9.81928 25.2509 7.71084Z" fill="currentColor"></path><path fill-rule="evenodd" clip-rule="evenodd" d="M170.405 8.28313V9.24699C170.619 9.12651 170.863 9.00602 171.107 8.91566C171.749 8.64458 172.42 8.46386 173.123 8.31325C173.825 8.19277 174.558 8.13253 175.352 8.13253C176.206 8.13253 177.031 8.22289 177.794 8.3735C178.588 8.5241 179.321 8.76506 180.023 9.09639C180.725 9.42771 181.367 9.81928 181.947 10.3313C182.527 10.8133 183.015 11.3554 183.443 12.0181C183.748 12.4699 183.992 12.9518 184.176 13.4337C184.389 13.9458 184.542 14.4578 184.664 15.0602C184.786 15.6325 184.878 16.2952 184.908 17.0783C184.969 17.8614 185 18.7349 185 19.6687V33.0422H179.351V18.9157C179.351 17.8313 179.26 16.9277 179.046 16.2048C178.863 15.5422 178.619 15.0602 178.313 14.6687C178.008 14.3373 177.642 14.0663 177.153 13.8855C176.573 13.6747 175.871 13.5843 175.046 13.5843C174.558 13.5843 174.13 13.6446 173.703 13.7349C173.306 13.8253 172.939 13.9458 172.604 14.1265C172.298 14.3072 171.993 14.488 171.749 14.7289C171.504 14.9699 171.26 15.2711 171.077 15.5723C170.955 15.753 170.863 15.9639 170.802 16.2048C170.711 16.4458 170.649 16.6867 170.588 16.9578V16.988C170.527 17.2892 170.497 17.6807 170.466 18.253C170.436 18.7952 170.436 19.5181 170.436 20.4217V33.0723H164.848V8.28313H170.405ZM133.582 9.93976V2.10843H139.261V33.1024H133.582V31.2349C133.185 31.5361 132.758 31.8374 132.33 32.0482C131.537 32.4096 130.743 32.6807 129.888 32.8614C129.063 33.0422 128.208 33.1325 127.323 33.1325C125.644 33.1325 124.086 32.8313 122.651 32.259C121.216 31.6566 119.903 30.7831 118.774 29.6084C117.613 28.4337 116.759 27.1386 116.178 25.6928C115.598 24.247 115.293 22.6807 115.293 20.994C115.293 19.3072 115.598 17.5301 116.209 15.8735C116.789 14.3072 117.613 12.8916 118.743 11.747C119.873 10.5723 121.186 9.6988 122.621 9.12651C124.056 8.55422 125.613 8.25301 127.323 8.25301C128.239 8.25301 129.124 8.34337 129.949 8.49398C130.804 8.6747 131.628 8.94578 132.391 9.30723C132.819 9.48795 133.216 9.6988 133.582 9.93976ZM136.239 17.3193V17.259L136.208 17.1988L136.239 17.3193ZM133.674 20.4819C133.674 19.5181 133.521 18.6145 133.185 17.8012C132.88 16.988 132.391 16.2651 131.75 15.6024C131.109 14.9398 130.437 14.4277 129.705 14.0964C129.002 13.7651 128.208 13.6145 127.384 13.6145C126.529 13.6145 125.705 13.7651 124.972 14.0964C124.239 14.3976 123.537 14.8795 122.926 15.512C122.346 16.0843 121.919 16.8675 121.583 17.741C121.216 18.7349 121.033 19.8494 121.033 20.8434C121.033 21.8373 121.186 22.7711 121.522 23.5542C121.827 24.3675 122.316 25.0904 122.957 25.753C123.598 26.4157 124.27 26.8976 125.033 27.2289C125.766 27.5602 126.59 27.7108 127.506 27.7108C128.3 27.7108 129.033 27.5602 129.735 27.2289C130.437 26.8976 131.14 26.4157 131.781 25.753C132.361 25.1506 132.819 24.3374 133.155 23.4639C133.491 22.5 133.674 21.4458 133.674 20.4819ZM44.7004 1.77711C46.4714 1.77711 47.998 1.92771 49.3109 2.25904C50.7155 2.62048 51.9063 3.16265 52.8528 3.91566C53.8298 4.6988 54.5626 5.69277 55.0512 6.89759C55.5092 8.04217 55.7534 9.33735 55.7534 10.8133C55.7534 11.5663 55.6618 12.2892 55.5092 12.9518C55.3565 13.6446 55.1122 14.3072 54.7764 14.8795C54.5321 15.3313 54.2268 15.753 53.8909 16.1446C53.952 16.2048 54.013 16.2349 54.0741 16.2952C54.7764 16.8374 55.387 17.4699 55.8756 18.1928C56.3641 18.9157 56.7305 19.6988 56.9442 20.5723C57.1885 21.4157 57.2801 22.3193 57.2801 23.2831C57.2801 24.9096 57.0358 26.3253 56.5778 27.5904C56.0893 28.9157 55.326 30 54.3184 30.8434C53.3108 31.6867 52.0895 32.2892 50.5933 32.7108C49.1888 33.1024 47.5706 33.2831 45.6775 33.2831L37.7084 33.3133V1.77711H44.7004ZM43.6623 19.8494V27.3795H46.0134C47.0515 27.3795 47.937 27.2892 48.6697 27.1084C49.3109 26.9578 49.7995 26.7169 50.1964 26.4157C50.5323 26.1446 50.8071 25.8133 50.9597 25.3916C51.1429 24.9398 51.2345 24.3374 51.2345 23.6145C51.2345 22.9217 51.1429 22.3494 50.9292 21.8675C50.746 21.4458 50.5017 21.0843 50.1353 20.8434C49.7384 20.5422 49.2193 20.3012 48.6087 20.1506C47.8759 19.9699 47.021 19.8795 46.0134 19.8795L43.6623 19.8494ZM43.6623 7.62048V13.9759H43.7539C45.0058 13.9759 46.105 13.8855 46.9904 13.7048C47.7537 13.5542 48.3339 13.3434 48.7003 13.1024C49.0056 12.8916 49.2499 12.6205 49.4025 12.259C49.5857 11.8373 49.6773 11.3253 49.6773 10.6627C49.6773 10.0602 49.5857 9.57831 49.4025 9.21687C49.2499 8.88554 49.0361 8.61446 48.7308 8.40361C48.3644 8.16265 47.8759 7.95181 47.2042 7.83133C46.4408 7.68072 45.5248 7.59036 44.4867 7.59036L43.6623 7.62048ZM58.3487 33.1325V8.31325H63.8752V9.27711C64.6996 8.76506 65.7072 8.37349 67.0812 8.34337H68.6079L68.6384 14.0361L67.2644 14.1566C66.5927 14.2169 66.0431 14.3373 65.5851 14.5181C65.2187 14.6687 64.9439 14.8494 64.7301 15.0904C64.5164 15.3313 64.3638 15.6928 64.2416 16.1145C64.089 16.6566 64.0279 17.3193 64.0279 18.1325V33.1325H58.3487ZM75.203 8.31325V21.5964C75.203 22.8614 75.2946 23.9458 75.5083 24.7892C75.6915 25.5422 75.9358 26.1145 76.2411 26.506C76.5159 26.8675 76.9128 27.1386 77.3708 27.3193C77.951 27.5301 78.6532 27.6506 79.5082 27.6506C79.9662 27.6506 80.4242 27.5904 80.8211 27.5C81.218 27.4096 81.5844 27.2892 81.8898 27.1084C82.1951 26.9277 82.5004 26.7169 82.7752 26.4759C83.0195 26.2349 83.2637 25.9337 83.4775 25.6024C83.6301 25.3313 83.8133 24.3675 83.9355 23.7651L83.966 23.6145C84.0271 23.3133 84.0576 22.8916 84.0881 22.3193C84.1187 21.7771 84.1187 21.0542 84.1187 20.1506V8.28313H89.7978V33.1627H84.1187V32.0181C83.9355 32.1386 83.7828 32.2289 83.5996 32.2892C82.9889 32.5602 82.3477 32.741 81.6455 32.8916C80.9738 33.012 80.241 33.0723 79.4166 33.0723C77.7678 33.0723 76.3022 32.8614 75.0809 32.4096C73.7679 31.9277 72.6688 31.1747 71.8444 30.1807C71.0505 29.2169 70.4704 27.9819 70.0734 26.4458C69.707 25 69.5238 23.3133 69.5238 21.3855V8.31325H75.203ZM108.85 9.93976V2.10843H114.53V33.1024H108.85V31.2349C108.454 31.5361 108.026 31.8374 107.599 32.0482C106.805 32.4096 106.011 32.6807 105.156 32.8614C104.332 33.0422 103.477 33.1325 102.591 33.1325C100.912 33.1325 99.3547 32.8313 97.9196 32.259C96.4846 31.6566 95.1716 30.7831 94.0419 29.6084C92.8817 28.4337 92.0267 27.1386 91.4466 25.6928C90.8665 24.247 90.5611 22.6807 90.5611 20.994C90.5611 19.3072 90.8665 17.5301 91.4771 15.8735C92.0573 14.3072 92.8817 12.8916 94.0114 11.747C95.1411 10.5723 96.454 9.6988 97.8891 9.12651C99.3241 8.55422 100.881 8.25301 102.591 8.25301C103.507 8.25301 104.393 8.34337 105.217 8.49398C106.072 8.6747 106.896 8.94578 107.66 9.30723C108.087 9.48795 108.484 9.6988 108.85 9.93976ZM111.507 17.3193V17.259L111.476 17.1988L111.507 17.3193ZM108.942 20.4819C108.942 19.5181 108.789 18.6145 108.454 17.8012C108.148 16.988 107.66 16.2651 107.018 15.6024C106.377 14.9398 105.706 14.4277 104.973 14.0964C104.271 13.7651 103.477 13.6145 102.652 13.6145C101.767 13.6145 100.973 13.7651 100.24 14.0964C99.5073 14.3976 98.8051 14.8795 98.1944 15.512C97.6143 16.0843 97.1868 16.8675 96.851 17.741C96.4846 18.7349 96.3014 19.8494 96.3014 20.8434C96.3014 21.8373 96.454 22.7711 96.7899 23.5542C97.0952 24.3675 97.5838 25.0904 98.225 25.753C98.8661 26.4157 99.5379 26.8976 100.301 27.2289C101.034 27.5602 101.858 27.7108 102.774 27.7108C103.568 27.7108 104.301 27.5602 105.003 27.2289C105.706 26.8976 106.408 26.4157 107.049 25.753C107.629 25.1506 108.087 24.3374 108.423 23.4639C108.759 22.5 108.942 21.4458 108.942 20.4819ZM162.65 23.0723L145.918 23.1024C146.009 23.4337 146.101 23.7349 146.254 24.006C146.589 24.7289 147.017 25.3614 147.597 25.9337C148.177 26.506 148.818 26.8976 149.551 27.1687C150.284 27.4398 151.108 27.5904 152.024 27.5904C152.665 27.5904 153.246 27.5 153.795 27.3494C154.345 27.1988 154.864 26.9578 155.352 26.6265C155.871 26.2952 156.299 25.9639 156.635 25.6024C156.879 25.3614 157.093 25.0602 157.276 24.6988H163.566L163.23 25.512C162.711 26.7771 162.1 27.8313 161.398 28.7349C160.665 29.6386 159.871 30.3916 158.894 31.0843C157.917 31.8072 156.848 32.3193 155.688 32.6807C154.559 33.0422 153.368 33.2229 152.085 33.2229C150.375 33.2229 148.818 32.9217 147.353 32.3193C145.887 31.7169 144.574 30.7831 143.414 29.5482C142.254 28.3434 141.368 26.988 140.758 25.512C140.177 24.0361 139.872 22.4398 139.872 20.753C139.872 18.9759 140.147 17.3494 140.727 15.8735C141.307 14.3675 142.162 13.0422 143.322 11.8374C144.483 10.6627 145.796 9.75904 147.292 9.15663C148.757 8.55422 150.375 8.28313 152.146 8.25301C153.887 8.25301 155.505 8.55422 156.94 9.15663C158.406 9.78916 159.688 10.6928 160.818 11.9578C161.917 13.1928 162.772 14.5783 163.322 16.1747C163.871 17.741 164.146 19.4578 164.146 21.3554V23.0723H162.65ZM157.703 17.7108C157.581 17.4398 157.459 17.1687 157.337 16.9277C156.971 16.2349 156.513 15.6627 155.994 15.1807C155.474 14.7289 154.894 14.3976 154.223 14.1867C153.49 13.9458 152.696 13.8253 151.78 13.8253C150.986 13.8253 150.223 13.9458 149.551 14.2169C148.879 14.4578 148.299 14.8494 147.75 15.3313C147.2 15.8434 146.773 16.4157 146.406 17.1084C146.315 17.3193 146.223 17.5301 146.131 17.741L157.703 17.7108Z" fill="currentColor"></path></svg>