<svg xmlns="http://www.w3.org/2000/svg" width="192" height="51" viewBox="0 0 192 51" fill="none"><path d="M45.0053 3.00739C44.3441 4.68994 43.4286 6.31992 42.3604 7.79216C32.8999 -2.35576 17.2849 -2.61866 7.51913 7.1612C-2.24661 16.9411 -2.55179 33.0831 6.90877 43.1784C7.21395 43.5465 7.56999 43.862 7.92603 44.1774L8.84157 45.0187C19.2177 54.0625 34.7818 52.6954 43.5303 41.9691C46.8873 37.8679 48.9218 32.715 49.2778 27.3519C49.9899 20.9897 48.108 12.7872 45.0053 3.00739ZM11.4865 44.4403C10.7744 45.3868 9.45193 45.4919 8.53639 44.7558C7.62085 44.0197 7.51913 42.6526 8.23121 41.7062C8.9433 40.7598 10.2657 40.6546 11.1813 41.3907C12.046 42.1268 12.1985 43.4939 11.4865 44.4403ZM44.8527 36.8163C38.8 45.1765 25.779 42.3372 17.4883 42.7578C17.4883 42.7578 16.0133 42.863 14.5382 43.0733C14.5382 43.0733 15.0977 42.8104 15.8098 42.5475C21.6591 40.4443 24.4057 40.0236 27.9661 38.1308C34.6292 34.6079 41.2923 26.8787 42.6147 18.8865C40.0716 26.5632 32.3404 33.1882 25.3213 35.8698C20.4892 37.7101 11.7916 39.4978 11.7916 39.4978L11.4356 39.2875C5.53546 36.2905 5.33201 23.0403 16.115 18.7814C20.8453 16.8885 25.3213 17.9401 30.4584 16.6782C35.9008 15.3637 42.2078 11.1573 44.751 5.63638C47.5993 14.5224 51.058 28.2983 44.8527 36.8163Z" fill="currentColor"></path><path d="M63.2652 35.5543C62.604 35.1337 62.1971 34.3976 62.248 33.6089C62.248 32.347 63.2143 31.2954 64.4351 31.2954C64.4351 31.2954 64.4351 31.2954 64.4859 31.2954C64.8928 31.2954 65.2997 31.4005 65.6558 31.6109C67.6903 33.0831 70.0809 33.8718 72.5223 33.9769C74.862 33.9769 76.2353 32.9254 76.2353 31.2954V31.1902C76.2353 29.2448 73.6922 28.6138 70.8947 27.7199C67.3851 26.6683 63.4178 25.1961 63.4178 20.4639V20.3588C63.4178 15.6791 67.1817 12.8398 71.9119 12.8398C74.5568 12.8924 77.1 13.5759 79.4397 14.8379C80.2535 15.2585 80.7622 16.0472 80.7622 16.9936C80.7622 18.2556 79.7449 19.3072 78.5242 19.3072H78.4733C78.1173 19.3072 77.7612 19.202 77.4052 19.0443C75.6758 18.0452 73.7939 17.4669 71.8102 17.3617C69.674 17.3617 68.4533 18.4133 68.4533 19.7804V19.8855C68.4533 21.7258 71.0473 22.462 73.8448 23.4084C77.3543 24.5126 81.2708 26.1951 81.2708 30.6118V30.717C81.2708 35.9224 77.3543 38.4988 72.4206 38.4988C69.1653 38.4462 65.961 37.4472 63.2652 35.5543Z" fill="currentColor"></path><path d="M83.3053 15.7317C83.2545 14.2069 84.4752 12.945 85.9502 12.8924H86.0011C87.527 12.8924 88.7477 14.1543 88.7477 15.7317V17.4143C90.5279 14.8379 93.0202 12.7872 96.8858 12.7872C102.481 12.7872 107.974 17.3617 107.974 25.6167V25.7219C107.974 33.9244 102.532 38.5514 96.8858 38.5514C92.9185 38.5514 90.4262 36.5008 88.7477 34.1873V42.9155C88.7477 44.4929 87.527 45.7548 86.0011 45.7548C84.526 45.7548 83.3053 44.4929 83.3053 42.9681V15.7317ZM102.481 25.7219V25.6167C102.481 20.832 99.3781 17.7298 95.6651 17.7298C91.9521 17.7298 88.6968 20.9371 88.6968 25.6167V25.7219C88.6968 30.4541 91.9521 33.6089 95.6651 33.6089C99.3781 33.6089 102.481 30.6118 102.481 25.7219Z" fill="currentColor"></path><path d="M110.11 15.7317C110.059 14.2069 111.28 12.945 112.755 12.8924H112.806C114.332 12.8924 115.553 14.1543 115.553 15.7317V17.0988C115.807 14.9956 119.164 12.8924 121.554 12.8924C122.928 12.7872 124.148 13.8388 124.25 15.2585C124.25 15.4162 124.25 15.5214 124.25 15.6791C124.25 17.0462 123.335 18.203 122.063 18.4133C118.147 19.0968 115.502 22.6197 115.502 27.5096V35.6595C115.502 37.2369 114.281 38.4462 112.755 38.4462C111.28 38.4462 110.059 37.2369 110.059 35.7121C110.059 35.7121 110.059 35.7121 110.059 35.6595L110.11 15.7317Z" fill="currentColor"></path><path d="M126.437 15.7843C126.386 14.2595 127.607 12.9976 129.082 12.945H129.133C130.659 12.945 131.88 14.2069 131.88 15.7843V35.7121C131.88 37.2895 130.659 38.4988 129.133 38.4988C127.607 38.4988 126.437 37.2369 126.437 35.7121V15.7843Z" fill="currentColor"></path><path d="M134.677 15.7843C134.626 14.2595 135.847 12.9976 137.322 12.945H137.373C138.899 12.945 140.12 14.2069 140.12 15.7843V16.9411C141.747 14.3121 144.595 12.7872 147.596 12.8924C152.988 12.8924 156.091 16.6256 156.091 22.3568V35.6595C156.141 37.1843 154.972 38.3937 153.497 38.4462C153.446 38.4462 153.446 38.4462 153.395 38.4462C151.92 38.4988 150.699 37.2369 150.648 35.7121V24.0919C150.648 20.2536 148.817 18.0452 145.511 18.0452C142.358 18.0452 140.12 20.3588 140.12 24.1971V35.7121C140.12 37.2895 138.899 38.5514 137.373 38.5514C135.847 38.5514 134.626 37.2895 134.626 35.7121L134.677 15.7843Z" fill="currentColor"></path><path d="M180.2 12.8398C178.674 12.8398 177.453 14.1017 177.453 15.6791V17.3617C175.673 14.7853 173.181 12.7347 169.315 12.7347C163.72 12.7347 158.227 17.3091 158.227 25.5642V25.6693C158.227 33.8718 163.669 38.4988 169.315 38.4988C173.282 38.4988 175.775 36.4482 177.453 34.1873C177.199 38.6566 174.554 40.9701 169.925 40.9701C167.382 40.9701 164.839 40.3391 162.601 39.0246C162.296 38.8669 161.991 38.8143 161.635 38.8143C160.363 38.8143 159.346 39.8133 159.295 41.1278C159.295 42.1268 159.905 43.0733 160.821 43.3887C163.72 44.861 166.874 45.5971 170.078 45.5971C174.401 45.5971 177.758 44.5455 179.895 42.2846C181.878 40.234 182.946 37.1317 182.946 32.9779V15.7317C182.997 14.1543 181.776 12.8924 180.251 12.8398H180.2ZM170.587 33.6089C166.823 33.6089 163.771 30.5593 163.771 25.6693V25.5642C163.771 20.7794 166.874 17.6772 170.587 17.6772C174.3 17.6772 177.555 20.8846 177.555 25.5642V25.6693C177.606 30.4015 174.35 33.6089 170.587 33.6089Z" fill="currentColor"></path><path d="M131.931 6.1096C131.931 7.687 130.71 8.94892 129.184 8.94892C127.658 8.94892 126.437 7.687 126.437 6.1096C126.437 4.5322 127.658 3.27029 129.184 3.27029C130.659 3.21771 131.88 4.47962 131.931 6.00444C131.931 6.05702 131.931 6.05702 131.931 6.1096Z" fill="currentColor"></path><path d="M189.203 18.7814C187.677 18.7814 186.405 17.4669 186.405 15.8895C186.405 14.3121 187.677 12.9976 189.203 12.9976C190.728 12.9976 192 14.3121 192 15.8895C192 17.4669 190.728 18.7814 189.203 18.7814ZM189.203 13.4182C187.88 13.4182 186.812 14.5224 186.812 15.8895C186.812 17.2565 187.88 18.3607 189.203 18.3607C190.525 18.3607 191.593 17.2565 191.593 15.8895C191.593 14.5224 190.576 13.4182 189.253 13.4182H189.203ZM189.965 17.5194L189.152 16.2049H188.592V17.5194H188.134V14.2069H189.457C190.016 14.1543 190.474 14.6275 190.525 15.2059C190.525 15.6791 190.169 16.0998 189.711 16.2049L190.576 17.5194H189.965ZM189.406 14.6275H188.592V15.7843H189.457C189.762 15.7843 190.016 15.5214 190.016 15.2059C190.016 14.8904 189.762 14.6275 189.406 14.6275Z" fill="currentColor"></path><path d="M43.5303 41.9691C46.8873 37.8679 48.9218 32.715 49.2778 27.3519L43.5303 41.9691Z" fill="currentColor"></path></svg>