<svg xmlns="http://www.w3.org/2000/svg" width="177" height="53" viewBox="0 0 177 53" fill="none"><path d="M112.219 52.9748C111.226 52.7534 110.258 52.4352 109.328 52.0249C109.218 51.9961 109.115 51.9447 109.026 51.8741C108.937 51.8035 108.864 51.7152 108.812 51.615C108.76 51.5148 108.73 51.4049 108.723 51.2924C108.717 51.1798 108.734 51.0672 108.774 50.9618C108.896 50.3548 108.983 49.7415 109.036 49.1249C109.239 49.2066 109.29 49.3891 109.386 49.5149C109.814 50.1637 110.405 50.6919 111.101 51.048C111.797 51.4041 112.575 51.5759 113.358 51.5468C114.031 51.5338 114.675 51.2762 115.167 50.8234C115.352 50.6645 115.5 50.4683 115.601 50.248C115.703 50.0277 115.756 49.7884 115.756 49.5464C115.756 49.3043 115.703 49.065 115.601 48.8447C115.5 48.6244 115.352 48.4282 115.167 48.2693C114.806 47.9446 114.401 47.6715 113.963 47.4578C113.193 47.0489 112.41 46.6589 111.652 46.1996C110.486 45.6104 109.562 44.6416 109.036 43.4569C107.966 40.7833 109.672 37.9964 112.658 37.468C114.315 37.1704 116.024 37.3903 117.548 38.0971C117.726 38.1789 117.898 38.2418 117.841 38.506C117.694 39.1917 117.56 39.8774 117.401 40.6637C117.153 40.4058 116.968 40.1982 116.765 40.0347C116.412 39.613 115.963 39.2794 115.456 39.0608C114.948 38.8422 114.395 38.7448 113.842 38.7765C113.451 38.7916 113.073 38.9185 112.753 39.1418C112.433 39.3651 112.186 39.6752 112.041 40.0347C111.938 40.4108 111.958 40.8094 112.099 41.1733C112.239 41.5372 112.493 41.8478 112.824 42.0603C113.448 42.4927 114.11 42.8675 114.804 43.1801C115.739 43.6262 116.625 44.1681 117.446 44.7968C118.059 45.2498 118.542 45.8524 118.849 46.5455C119.155 47.2386 119.274 47.9985 119.194 48.7507C119.114 49.5029 118.837 50.2216 118.391 50.8364C117.945 51.4512 117.345 51.9409 116.65 52.2577C115.971 52.547 115.271 52.7846 114.555 52.9685L112.219 52.9748Z" fill="currentColor"></path><path d="M127.028 52.9748C126.681 52.8929 126.327 52.8424 125.971 52.8239C123.953 52.3772 122.896 51.0436 122.463 49.1312C122.334 48.5105 122.276 47.8774 122.291 47.2439C122.291 44.7716 122.291 42.2994 122.291 39.8271C122.291 39.4182 122.176 39.2798 121.775 39.3238C121.532 39.3427 121.287 39.3427 121.043 39.3238C120.897 39.3238 120.693 39.4119 120.617 39.2106C120.54 39.0093 120.75 38.9149 120.897 38.8331C121.732 38.3683 122.51 37.8089 123.214 37.1661C124.191 36.2975 125.047 35.3055 125.761 34.2157C125.901 34.0081 126.028 33.8068 126.327 33.876C126.627 33.9452 126.493 34.222 126.493 34.3981C126.493 35.3291 126.538 36.2853 126.493 37.1912C126.493 37.6756 126.639 37.7763 127.091 37.7574C128.002 37.7259 128.912 37.7574 129.816 37.7574C130.122 37.7574 130.198 37.8455 130.205 38.1411C130.205 39.3993 130.205 39.3993 128.989 39.3993C128.288 39.3993 127.588 39.3993 126.894 39.3993C126.608 39.3993 126.499 39.4685 126.499 39.7767C126.499 42.8089 126.499 45.8411 126.499 48.8795C126.461 49.358 126.575 49.8362 126.825 50.2477C127.075 50.6593 127.449 50.9836 127.894 51.1757C128.368 51.3952 128.896 51.4757 129.415 51.4076C129.934 51.3396 130.422 51.1259 130.822 50.7919C130.911 50.7227 130.988 50.641 131.141 50.5026C131.087 50.7476 130.978 50.9776 130.822 51.1757C130.477 51.664 130.027 52.0711 129.504 52.368C128.982 52.6648 128.399 52.8441 127.798 52.8931C127.556 52.8911 127.315 52.9272 127.085 53L127.028 52.9748Z" fill="currentColor"></path><path d="M96.143 52.9748C95.8145 52.8853 95.4773 52.8305 95.1371 52.8113C94.3681 52.6447 93.662 52.2679 93.0991 51.7241C92.5363 51.1802 92.1394 50.491 91.9537 49.7351C91.7526 49.0891 91.6517 48.4167 91.6545 47.7409C91.6545 44.5955 91.6545 41.4878 91.6545 38.3613C91.6545 38.0342 91.7564 37.9084 92.0811 37.8895C93.2653 37.8203 94.4431 37.7385 95.6273 37.6316C95.9775 37.6001 95.9329 37.8077 95.9329 38.0153C95.9329 39.9529 95.9329 41.8967 95.9329 43.8343C95.9329 45.5014 95.8374 47.1747 95.9966 48.8355C96.0857 49.8357 96.4613 50.7227 97.5373 51.0058C98.0172 51.1485 98.5309 51.1337 99.0015 50.9636C99.4722 50.7935 99.8743 50.4772 100.148 50.0622C100.182 50.0242 100.22 49.9904 100.262 49.9616C100.358 50.144 100.23 50.2761 100.173 50.4019C99.892 51.0907 99.4218 51.6883 98.8155 52.1273C98.2092 52.5663 97.4909 52.8294 96.7415 52.8868C96.5632 52.8868 96.3913 52.9434 96.2194 52.9748H96.143Z" fill="currentColor"></path><path d="M116.593 0C117.331 0.333412 117.866 0.786349 117.866 1.67964C117.857 2.06798 117.706 2.44 117.442 2.72764C117.178 3.01528 116.818 3.19931 116.427 3.24605C116.04 3.3037 115.644 3.2251 115.309 3.02392C114.973 2.82274 114.72 2.51175 114.594 2.14516C114.473 1.77528 114.492 1.37507 114.645 1.01723C114.798 0.659382 115.075 0.367644 115.428 0.195013L115.816 0H116.593Z" fill="currentColor"></path><path d="M23.2318 22.6029C23.1745 21.8417 23.2318 21.7284 23.8303 21.5208C24.0022 21.4642 23.9513 21.351 23.9449 21.2503C23.9298 20.8812 23.9994 20.5134 24.1486 20.1746C24.1673 20.0994 24.2047 20.03 24.2574 19.9726C24.3101 19.9153 24.3764 19.8719 24.4504 19.8463C24.5244 19.8207 24.6036 19.8137 24.681 19.826C24.7584 19.8383 24.8314 19.8694 24.8935 19.9167C25.1063 20.0348 25.3049 20.1762 25.4856 20.3382C25.683 20.5269 25.8231 20.6716 26.1223 20.4766C26.326 20.3445 26.5425 20.5395 26.759 20.6716C26.829 20.7219 26.8863 20.8414 27.0009 20.7785C27.1155 20.7156 27.0901 20.5772 27.071 20.4766C27.0073 20.1935 26.9373 19.9104 26.8608 19.6336C26.6029 18.797 26.6029 17.9035 26.8608 17.0669C27.2937 15.7289 27.2937 14.2908 26.8608 12.9528C26.6349 12.1587 26.6349 11.3185 26.8608 10.5245C27.1537 9.44249 27.905 9.17199 28.8409 9.79478C29.7768 10.4176 30.0569 10.2414 30.2225 9.1657C30.388 8.08997 30.4771 6.8381 30.7254 5.68688C30.8572 5.00977 31.0709 4.35079 31.3621 3.72415C31.4544 3.53622 31.5608 3.35537 31.6804 3.18314C32.6163 1.80546 33.5904 1.81175 34.5072 3.18314C34.6218 3.35929 34.7237 3.54172 34.8383 3.71786C35.2521 4.34694 35.5832 4.34694 36.0225 3.71786C36.2224 3.42769 36.4031 3.12511 36.5637 2.81199C36.9056 2.14934 37.4611 1.61811 38.1426 1.30219C38.3314 1.19565 38.5429 1.13423 38.76 1.12283C38.9772 1.11144 39.1941 1.15039 39.3933 1.23658C39.5925 1.32277 39.7685 1.4538 39.9073 1.61921C40.0461 1.78462 40.1438 1.97982 40.1927 2.1892C40.5492 3.19573 40.9121 3.29009 41.7525 2.58552C42.1445 2.20062 42.5879 1.87045 43.0704 1.60416C44.21 1.07573 44.9422 1.73626 44.783 2.7365C44.7766 2.78451 44.7766 2.83317 44.783 2.88119C44.783 3.09507 44.6684 3.37187 44.9104 3.51027C45.1523 3.64866 45.2796 3.37816 45.4579 3.2838C45.6362 3.18944 45.7062 3.12653 45.8335 3.06362C45.9187 3.00564 46.0168 2.96902 46.1194 2.9569C46.2221 2.94479 46.3261 2.95756 46.4227 2.9941C46.5192 3.03064 46.6053 3.08986 46.6735 3.16664C46.7417 3.24342 46.7899 3.33545 46.814 3.43478C46.8651 3.58037 46.9489 3.71262 47.0592 3.82159C47.1695 3.93055 47.3033 4.01338 47.4507 4.06386C47.6096 4.11699 47.7509 4.21193 47.8594 4.33846C47.9678 4.46499 48.0393 4.61833 48.0661 4.782C48.093 4.94566 48.0741 5.11346 48.0117 5.26735C47.9493 5.42125 47.8455 5.55541 47.7117 5.65543C47.6035 5.75608 47.4761 5.83157 47.3615 5.91964C47.0623 6.13353 47.0623 6.35371 47.3615 6.54872C47.6608 6.74374 48.0937 7.12748 47.8709 7.66849C47.7867 7.9375 47.6178 8.17291 47.3888 8.34039C47.1597 8.50788 46.8825 8.59867 46.5975 8.59952C46.255 8.58551 45.913 8.63897 45.5916 8.75679C45.2414 8.91406 45.2096 9.10908 45.4961 9.38587C45.7826 9.66267 45.8972 9.713 46.0818 9.89543C46.8013 10.5937 46.6612 11.3612 45.7189 11.7449C44.834 12.0742 43.8825 12.1906 42.9431 12.0846C42.3778 12.0289 41.8071 12.102 41.275 12.2985C41.0776 12.374 40.8484 12.4369 40.8357 12.6948C40.823 12.9528 41.0076 13.066 41.1859 13.1792C41.3641 13.2925 41.5233 13.3742 41.6888 13.4749C41.812 13.5314 41.9202 13.6155 42.0047 13.7206C42.0892 13.8257 42.1477 13.9488 42.1755 14.0801C42.2033 14.2115 42.1997 14.3475 42.165 14.4772C42.1302 14.6069 42.0653 14.7269 41.9753 14.8274C41.7168 15.1799 41.3641 15.4543 40.9567 15.6201C39.6651 16.2483 38.2089 16.4679 36.7865 16.2491C36.3739 16.1273 35.9395 16.0951 35.5132 16.1548C35.3094 16.2051 35.0866 16.2617 35.0484 16.5134C35.0426 16.6122 35.0683 16.7103 35.122 16.7938C35.1757 16.8773 35.2546 16.9421 35.3476 16.9789C35.6532 17.1613 35.9843 17.306 36.2772 17.4947C37.2194 18.0609 37.2131 18.8787 36.2772 19.4449C35.7386 19.7439 35.1498 19.9442 34.5391 20.0362C33.2189 20.2974 32.0133 20.9568 31.0883 21.9234C30.7405 22.3027 30.3568 22.6482 29.9423 22.9551C29.7311 23.1335 29.4808 23.261 29.2113 23.3276C28.9417 23.3942 28.6602 23.3981 28.3889 23.3389C28.3209 23.3123 28.2454 23.3117 28.1771 23.3373C28.1087 23.3629 28.0526 23.4128 28.0196 23.4773C27.9941 23.5165 27.9665 23.5543 27.9368 23.5905C26.5489 25.3582 26.5489 25.3582 27.1346 27.5411C27.4164 28.6622 27.8132 29.752 28.3188 30.7935C28.79 31.7245 29.0001 31.7811 29.8659 31.1961C31.6168 30.0071 33.3358 28.7678 35.163 27.6858C36.1944 27.0567 37.2449 26.5031 38.2699 25.8867C38.983 25.4652 39.0212 25.3331 38.5437 24.6914C37.9382 23.8349 37.6607 22.7936 37.7606 21.7536C37.7606 21.0742 37.9261 20.6275 38.5628 20.3507C38.6774 20.3067 38.7411 20.1306 38.8175 20.011C39.6384 18.6388 40.7775 17.4788 42.1409 16.6266C43.3569 15.922 44.6111 15.5509 45.9609 16.1611C46.2028 16.268 46.3556 16.1296 46.5339 16.0164C46.7121 15.9031 46.9159 15.7522 47.1705 15.9598C47.4252 16.1674 47.266 16.3624 47.1705 16.5196C47.0833 16.6302 47.0359 16.7663 47.0359 16.9065C47.0359 17.0467 47.0833 17.1829 47.1705 17.2934C47.5399 17.984 47.6221 18.7897 47.3997 19.5392C46.9956 21.3603 45.979 22.9924 44.5156 24.1693C44.0763 24.5153 43.879 25.094 43.2996 25.3016C42.9538 25.3922 42.6264 25.5412 42.3319 25.742C42.9619 25.7593 43.5919 25.7066 44.21 25.5847C45.0514 25.5122 45.8942 25.7061 46.6166 26.1383C47.2388 26.5276 47.7409 27.0781 48.0682 27.7299C48.1529 27.96 48.1602 28.211 48.0891 28.4455C48.018 28.6801 47.8723 28.8858 47.6735 29.0321C47.095 29.5043 46.4052 29.8245 45.668 29.9631C44.6912 30.2101 43.683 30.3139 42.6757 30.2713C40.963 30.2084 40.8039 29.183 41.3132 27.8557C41.6093 27.3074 42.0041 26.817 42.4783 26.4088C41.275 26.629 40.1417 26.5535 39.0785 26.9624C35.7293 28.2302 32.702 30.2079 30.2097 32.7562C29.4594 33.4952 28.9458 34.4359 28.7327 35.4613C28.2552 37.7385 27.5867 39.9718 26.9245 42.1987C26.8565 42.3443 26.8259 42.5042 26.8354 42.6642C27.7395 41.8401 28.1087 41.9219 28.3125 42.7712C28.3125 42.7712 28.3825 42.7397 28.3825 42.7271C28.3985 42.2423 28.536 41.769 28.7826 41.3495C29.0293 40.9301 29.3775 40.5778 29.7959 40.324C30.641 39.6626 31.2591 38.7598 31.5658 37.7385C31.6847 37.3904 31.812 37.0444 31.9478 36.7005C32.0852 36.3232 32.2691 35.964 32.4954 35.6311C33.374 34.3729 34.469 34.4358 35.1439 35.8261L35.2712 36.0903C35.4495 36.4363 35.6596 36.4237 35.9079 36.1407C36.286 35.6594 36.6265 35.1505 36.9266 34.6183C37.4764 33.6152 38.1642 32.6921 38.9703 31.8755C39.2564 31.5943 39.6022 31.3795 39.9826 31.2464C40.1609 31.1738 40.3521 31.1369 40.545 31.1378C40.738 31.1387 40.9288 31.1774 41.1064 31.2517C41.2841 31.326 41.4451 31.4345 41.58 31.5707C41.715 31.7069 41.8212 31.8682 41.8926 32.0453C42.0708 32.4039 42.1791 32.7939 42.3446 33.1588C42.5101 33.5237 42.8285 33.6558 43.1723 33.3161C43.3342 33.1374 43.4812 32.9459 43.6116 32.7436C44.1589 31.9596 44.9176 31.3429 45.8017 30.9633C46.7185 30.567 47.2915 30.9633 47.317 31.9384C47.317 32.102 47.317 32.2592 47.317 32.4228C47.317 32.5864 47.317 32.7877 47.5271 32.8694C47.7372 32.9512 47.8645 32.8694 47.9982 32.7122C48.1319 32.5549 48.3993 32.297 48.6349 32.0831C48.8736 31.8404 49.1595 31.6479 49.4753 31.5169C49.6211 31.4411 49.7856 31.4073 49.95 31.4195C50.1144 31.4316 50.2719 31.4892 50.4047 31.5857C50.5375 31.6821 50.6402 31.8135 50.701 31.9649C50.7618 32.1163 50.7783 32.2815 50.7486 32.4417C50.6977 33.3475 50.6977 33.3475 51.6272 33.3475C51.7618 33.3372 51.8969 33.3583 52.0216 33.4092C52.1464 33.46 52.2573 33.5392 52.3453 33.6403C52.4334 33.7413 52.4961 33.8615 52.5284 33.991C52.5607 34.1204 52.5617 34.2556 52.5313 34.3855C52.4381 34.9284 52.1806 35.4307 51.7927 35.8261C51.398 36.2916 51.4044 36.4552 51.85 36.8767C51.9875 36.9866 52.0916 37.1318 52.151 37.2964C52.2103 37.461 52.2226 37.6386 52.1864 37.8096C52.1502 37.9806 52.0669 38.1385 51.9458 38.2658C51.8247 38.3931 51.6704 38.4849 51.4999 38.5312C51.1762 38.6342 50.8467 38.7182 50.5131 38.7828C49.7172 38.9967 49.5708 39.3615 49.991 40.041C50.1177 40.2287 50.2326 40.4241 50.3348 40.626C50.4411 40.7968 50.5045 40.9903 50.5198 41.1902C50.5351 41.3902 50.5018 41.5908 50.4227 41.7755C50.3436 41.9602 50.2209 42.1235 50.065 42.2518C49.9091 42.3801 49.7243 42.4698 49.5262 42.5132C48.8156 42.7484 48.0639 42.8383 47.317 42.7774C46.7046 42.7031 46.0873 42.6758 45.4706 42.6957C45.2924 42.6957 45.0886 42.6957 45.0059 42.9033C44.9231 43.1109 45.0695 43.2681 45.1905 43.4128C45.3115 43.5575 45.5216 43.7714 45.6616 43.9601C46.3492 44.8597 46.1009 45.6901 45.025 46.0109C43.745 46.336 42.4007 46.3208 41.1286 45.9669C40.3709 45.7907 39.6642 45.451 38.9257 45.2057C38.5342 45.0495 38.1115 44.9849 37.6906 45.017C37.1685 45.0862 37.0539 45.2938 37.3531 45.7215C37.5717 46.0007 37.7556 46.3049 37.9007 46.6274C37.9751 46.7733 38.0103 46.9357 38.0027 47.0989C37.9951 47.2621 37.9451 47.4206 37.8574 47.5591C37.7697 47.6976 37.6473 47.8114 37.5021 47.8895C37.3569 47.9677 37.1938 48.0075 37.0284 48.0051C36.5374 48.046 36.0451 47.9408 35.615 47.7031C35.0611 47.4075 34.52 47.0741 33.9788 46.7595C33.219 46.2627 32.3623 45.9284 31.464 45.7782C30.9642 45.7021 30.4537 45.7343 29.9678 45.8725C29.5171 46.0105 29.0425 46.0554 28.5735 46.0046C28.1087 45.9606 27.7076 45.8159 27.6057 45.2938C27.5612 45.0799 27.472 45.0862 27.3065 45.168C26.7988 45.4137 26.4006 45.8357 26.188 46.3533C25.9755 46.8709 25.9634 47.4478 26.1541 47.9737C26.2804 48.2545 26.4917 48.4896 26.759 48.6468C26.8884 48.7177 26.9922 48.8267 27.0561 48.9586C27.1199 49.0905 27.1407 49.2387 27.1155 49.3828C26.9969 50.3111 27.1061 51.254 27.4339 52.1319C27.5612 52.5471 27.4338 52.6288 27.0582 52.6855C26.5285 52.7641 25.9899 52.7641 25.4602 52.6855C25.18 52.6477 25.0591 52.5093 25.0018 52.2199C24.728 50.7039 24.3651 49.2066 23.964 47.722C23.799 47.0475 23.3831 46.4591 22.7989 46.0738C21.8995 45.4418 20.9595 44.8682 19.9848 44.3564C19.2562 44.0007 18.4651 43.7871 17.6546 43.7274C17.5869 43.7106 17.5164 43.7075 17.4474 43.7181C17.3784 43.7288 17.3122 43.753 17.2529 43.7894C17.1935 43.8257 17.1421 43.8735 17.1018 43.9299C17.0614 43.9862 17.0329 44.05 17.018 44.1174C16.7753 44.7459 16.443 45.3369 16.0311 45.8725C15.9385 46.0385 15.8091 46.1816 15.6526 46.2913C15.4961 46.4009 15.3166 46.4742 15.1275 46.5056C14.9383 46.5371 14.7444 46.5259 14.5602 46.4729C14.376 46.4199 14.2064 46.3265 14.0638 46.1996C13.1184 45.498 12.4679 44.4767 12.2366 43.331C12.1032 42.7089 12.1032 42.066 12.2366 41.4438C12.4212 40.5191 13.1407 40.3618 13.8665 40.4058C14.4527 40.4314 15.0242 40.5948 15.5336 40.8826C16.043 41.1704 16.4755 41.5741 16.7951 42.0603C16.9032 42.1996 17.0271 42.3263 17.1644 42.4377C17.1644 42.4377 17.2408 42.4377 17.3618 42.5132C17.0857 42.0833 16.839 41.6357 16.6232 41.1733C16.4089 40.6621 16.2924 40.116 16.2794 39.5629C16.2561 39.3947 16.2689 39.2236 16.317 39.0607C16.3651 38.8978 16.4474 38.7467 16.5585 38.6173C16.6696 38.4879 16.8071 38.3831 16.962 38.3098C17.1168 38.2364 17.2856 38.1961 17.4573 38.1915C18.5368 38.0274 19.6388 38.0787 20.6979 38.3424C21.3968 38.4659 22.0534 38.76 22.6079 39.198C22.9251 39.4708 23.1258 39.8524 23.1695 40.2656C23.2132 40.6789 23.0967 41.0932 22.8435 41.4249C22.4856 41.9328 22.057 42.3881 21.5701 42.7774C21.2719 43.0204 20.9138 43.181 20.5324 43.243C20.3032 43.243 20.1822 43.5198 19.8957 43.3562C19.9123 43.4206 19.9457 43.4794 19.9927 43.5269C20.0396 43.5744 20.0984 43.6088 20.1631 43.6267C21.1245 44.1237 22.0731 44.6207 23.0217 45.1743C23.6075 45.5202 23.7985 45.4699 24.1168 44.8849C25.1673 43.1815 25.704 41.2174 25.6639 39.2231C25.6697 39.0472 25.6109 38.8752 25.4984 38.7388C25.4171 38.6488 25.3558 38.5429 25.3185 38.428C25.2812 38.3132 25.2688 38.1919 25.2819 38.0719C25.2819 37.7511 25.2819 37.4428 25.6512 37.2353C26.0205 37.0277 26.1351 37.3737 26.4088 37.5183C26.7319 36.6119 26.9081 35.6608 26.9309 34.7001C26.9416 34.6108 26.9249 34.5205 26.8829 34.4408C26.8409 34.3611 26.7755 34.2958 26.6953 34.2534C26.1605 34.0343 25.6946 33.6782 25.3456 33.2217C25.04 34.1024 24.6644 34.2974 23.8112 34.071C23.512 33.9892 23.2191 33.8948 22.9199 33.8256C22.6456 33.7479 22.3564 33.737 22.0769 33.794C21.7975 33.8509 21.5362 33.9741 21.3155 34.1528C20.9382 34.4551 20.506 34.6835 20.0421 34.8259C19.4946 34.9894 19.2527 34.8573 19.0999 34.3226C19.0999 34.2597 19.068 34.1968 19.0553 34.1339C19.0107 33.9326 18.9789 33.6872 18.7051 33.6872C18.4314 33.6872 18.355 33.9011 18.3168 34.115C18.1194 35.2348 17.349 36.0023 16.5659 36.7005C16.4085 36.8382 16.2379 36.9604 16.0566 37.0654C15.3499 37.4806 14.987 37.3296 14.7833 36.5496C14.7132 36.2728 14.7833 35.8324 14.3694 35.8261C13.9556 35.8198 13.8665 36.235 13.771 36.5496C13.3359 37.9529 12.5625 39.2309 11.5172 40.2737C11.2865 40.5465 10.9943 40.762 10.664 40.9028C10.5844 40.9446 10.4962 40.9679 10.4061 40.971C10.316 40.974 10.2263 40.9566 10.144 40.9202C10.0618 40.8838 9.98896 40.8293 9.93122 40.7609C9.87349 40.6924 9.83233 40.6119 9.8109 40.5253C9.72176 40.2989 9.6772 40.0598 9.60717 39.8334C9.58474 39.7045 9.51924 39.5867 9.42115 39.4989C9.32306 39.4111 9.19802 39.3583 9.066 39.349C8.77313 39.349 8.69673 39.5566 8.59486 39.7642C8.40386 40.1479 8.21923 40.5442 8.00913 40.9217C7.8473 41.2394 7.59791 41.5054 7.2897 41.6891C7.1514 41.791 6.98681 41.8523 6.81486 41.8659C6.64291 41.8795 6.47056 41.8449 6.31762 41.766C6.16468 41.6872 6.03735 41.5673 5.95028 41.4202C5.8632 41.273 5.81991 41.1046 5.82536 40.9342C5.82462 40.6933 5.78816 40.4538 5.71713 40.2234C5.5707 39.8648 5.29693 39.8208 5.08046 40.129C4.9843 40.2779 4.89918 40.4335 4.82579 40.5945C4.65149 40.9527 4.35975 41.242 3.99797 41.4156C3.6362 41.5892 3.22565 41.6368 2.83303 41.5507C2.40646 41.4753 2.06266 41.2991 2.07539 40.777C2.07539 40.4939 1.97989 40.2926 1.61699 40.2989C1.4092 40.3059 1.20268 40.2642 1.01432 40.1772C0.825949 40.0902 0.661075 39.9605 0.533171 39.7985C0.405268 39.6366 0.317959 39.447 0.278382 39.2453C0.238805 39.0436 0.248086 38.8356 0.305457 38.6381C0.378203 38.3095 0.505103 37.995 0.681089 37.7071C0.764939 37.5895 0.799202 37.4443 0.776624 37.3023C0.754046 37.1602 0.676398 37.0324 0.56012 36.9459C0.349137 36.7829 0.187648 36.5657 0.0933642 36.3181C-0.000919972 36.0704 -0.0243619 35.8019 0.0256231 35.542C0.075608 35.282 0.197087 35.0407 0.376725 34.8445C0.556363 34.6482 0.787221 34.5047 1.04398 34.4296C1.22225 34.3478 1.40689 34.2849 1.58516 34.2031C2.11359 33.9577 2.22183 33.574 1.82709 33.1337C1.64183 32.9327 1.4418 32.7456 1.22862 32.5738C1.04037 32.4454 0.888208 32.2719 0.786436 32.0695C0.684663 31.8671 0.636612 31.6425 0.646795 31.4167C0.656979 31.1909 0.725065 30.9714 0.844656 30.7788C0.964247 30.5861 1.13143 30.4267 1.33049 30.3154C1.71198 30.038 2.14889 29.844 2.61214 29.7464C3.0754 29.6487 3.55437 29.6497 4.01722 29.7492C4.3191 29.8122 4.63218 29.7993 4.92766 29.7115C4.99687 29.7023 5.06253 29.6757 5.11834 29.6342C5.17415 29.5927 5.21824 29.5377 5.24636 29.4746C5.27449 29.4114 5.28571 29.3422 5.27896 29.2735C5.2722 29.2048 5.2477 29.139 5.20779 29.0824C5.04868 28.7663 4.85435 28.4688 4.62842 28.1954C4.51004 28.0561 4.42362 27.8932 4.3751 27.7178C4.32658 27.5424 4.31713 27.3586 4.34739 27.1793C4.37764 26.9999 4.44689 26.8291 4.55037 26.6787C4.65384 26.5283 4.78907 26.4019 4.94676 26.3081C5.3992 26.0149 5.93439 25.8717 6.47476 25.8992C7.8764 25.8429 9.26779 26.1578 10.5049 26.8114L10.6322 26.8743C10.8932 26.9687 11.1797 27.1385 11.4026 26.8743C11.6254 26.6101 11.4026 26.4025 11.2689 26.1823C11.2458 26.139 11.2202 26.097 11.1925 26.0565C10.9974 25.839 10.877 25.5661 10.8484 25.2768C10.8198 24.9875 10.8845 24.6968 11.0333 24.4461C11.2195 24.1875 11.483 23.9932 11.7868 23.8905C12.0907 23.7878 12.4194 23.7819 12.7268 23.8736C13.8053 24.0527 14.8247 24.4841 15.7001 25.1318C16.182 25.5364 16.6974 25.9005 17.2408 26.2201C17.731 26.4717 17.8775 26.371 17.9857 25.8237V25.6791C18.113 24.597 18.6224 24.2888 19.6538 24.7166C20.6617 25.1861 21.493 25.9591 22.0285 26.9246C22.487 27.7545 23.1056 28.4876 23.8494 29.0824C24.5094 29.6035 24.9606 30.3391 25.1228 31.1583C25.1673 31.3471 25.1227 31.5861 25.371 31.6994C25.5684 30.6614 25.6512 30.6362 26.8354 31.3534C26.8761 31.2689 26.8973 31.1764 26.8973 31.0828C26.8973 30.9893 26.8761 30.8968 26.8354 30.8123C26.3497 29.1825 25.7628 27.5837 25.0782 26.025C24.8904 25.5763 24.5566 25.2022 24.1296 24.9619C23.5469 24.6754 23.0258 24.2802 22.5952 23.7981C22.4233 23.6031 22.2832 23.515 22.0476 23.7981C21.9207 23.9371 21.7477 24.0268 21.5598 24.051C21.3719 24.0752 21.1814 24.0324 21.0226 23.9302C20.7734 23.8112 20.5421 23.6588 20.335 23.4773C19.1679 22.4641 17.7007 21.8507 16.1521 21.7284C15.3302 21.6311 14.5264 21.4193 13.7646 21.0993C13.5371 21.0296 13.336 20.894 13.1873 20.71C13.0386 20.5261 12.9492 20.3023 12.9306 20.0677C12.9306 19.5455 13.2871 19.2813 13.6755 19.0297C13.8983 18.8913 14.3121 18.8787 14.2739 18.5516C14.2357 18.2245 13.8537 18.1364 13.58 18.0169C13.1064 17.8501 12.6053 17.7733 12.1029 17.7904C10.8504 17.7947 9.63924 17.3474 8.69673 16.5322C8.51831 16.3706 8.35232 16.1961 8.20013 16.0101C8.086 15.878 8.00325 15.7223 7.95793 15.5545C7.91262 15.3867 7.90589 15.211 7.93825 15.0403C7.97061 14.8695 8.04123 14.7081 8.14493 14.5679C8.24863 14.4277 8.38279 14.3121 8.53756 14.2298C8.82406 14.0537 9.1424 13.9278 9.448 13.7706C9.63264 13.6762 9.84274 13.5818 9.85547 13.3365C9.8682 13.0912 9.61353 12.9779 9.42889 12.871C9.09051 12.7133 8.72988 12.6072 8.3593 12.5564C7.60803 12.4333 6.87038 12.2395 6.15642 11.9777C5.72505 11.8254 5.33961 11.5679 5.03589 11.2291C4.91487 11.098 4.82473 10.9421 4.77195 10.7725C4.71917 10.6029 4.70506 10.4239 4.73062 10.2482C4.75619 10.0726 4.82079 9.90477 4.91981 9.75675C5.01882 9.60874 5.14979 9.48423 5.30329 9.39217C5.65719 9.1587 6.04311 8.97651 6.44929 8.85116C6.57663 8.80712 6.76126 8.78196 6.76763 8.60582C6.77399 8.42967 6.63393 8.35418 6.50659 8.28498C6.10549 8.04593 5.68529 7.83205 5.29056 7.58042C4.82333 7.31358 4.42123 6.94848 4.11273 6.51098C4.01539 6.39003 3.95028 6.24692 3.92335 6.0947C3.89641 5.94249 3.90851 5.78603 3.95853 5.63963C4.00856 5.49322 4.09491 5.36154 4.20971 5.2566C4.32451 5.15167 4.46408 5.07684 4.61569 5.03893C4.84527 4.96277 5.0791 4.89976 5.31603 4.85021C5.85083 4.70552 5.89539 4.5797 5.54523 4.13935C5.34149 3.88772 5.11866 3.65495 4.90856 3.39074C4.54566 2.90006 4.57113 2.69875 5.01679 2.29614C5.07164 2.25294 5.11486 2.19704 5.14262 2.1334C5.17038 2.06976 5.18183 2.00033 5.17596 1.93127C5.17596 1.40285 5.39879 1.12605 5.92722 1.19525C6.19275 1.25898 6.46844 1.27011 6.73835 1.228C7.00826 1.18589 7.26705 1.09138 7.49979 0.949911C7.62277 0.881865 7.76513 0.856063 7.90455 0.876556C8.04396 0.897048 8.17255 0.962676 8.27016 1.06315C8.40589 1.17626 8.52962 1.30272 8.63943 1.44059C8.82407 1.6419 8.88773 2.01935 9.16149 2.06967C9.43526 2.12 9.45437 1.67335 9.59443 1.44059C9.71885 1.2402 9.90363 1.08332 10.1228 0.991936C10.3421 0.900554 10.5847 0.87926 10.8168 0.93104C11.3759 1.05595 11.8721 1.37241 12.2175 1.82433C12.4409 2.09929 12.6311 2.39908 12.7841 2.71763C13.0452 3.2146 13.1852 3.22089 13.5099 2.75537C13.6373 2.57294 13.7582 2.37792 13.8856 2.19549C14.0459 1.91286 14.2941 1.68871 14.5933 1.55617C14.8926 1.42362 15.227 1.38972 15.5473 1.45946C15.8709 1.50445 16.1744 1.64136 16.4208 1.85354C16.6672 2.06573 16.8459 2.34406 16.9352 2.65472C17.3121 3.70045 17.4618 4.81292 17.3745 5.91964C17.3364 6.28734 17.3557 6.65864 17.4318 7.02053C17.5528 7.54896 17.7501 7.61187 18.1512 7.25329C18.3677 7.06457 18.5587 6.84439 18.7879 6.66196C19.6665 5.96368 20.4942 6.17127 20.9144 7.20296C21.2879 8.22264 21.2675 9.34263 20.8571 10.3484C20.594 10.9197 20.4387 11.5337 20.3987 12.1601C20.3987 12.3614 20.3477 12.6193 20.6024 12.6948C20.8571 12.7703 20.9526 12.525 21.0735 12.3614C21.2402 12.1448 21.4658 11.9796 21.7239 11.8849C21.9821 11.7902 22.2622 11.77 22.5315 11.8267C22.9581 11.9462 23.2127 12.3488 23.2318 12.9779C23.2075 13.8203 23.1331 14.6605 23.009 15.4942C22.8686 16.4976 22.9074 17.5175 23.1236 18.5075C23.4182 19.5349 23.3508 20.6306 22.9326 21.6152C22.7925 21.9864 22.7289 22.3449 23.2318 22.6029Z" fill="currentColor"></path><path d="M65.3347 7.593V8.22208C65.3347 13.0534 65.3347 17.8764 65.3347 22.6909C65.3347 23.1061 65.2455 23.2571 64.8062 23.2256C64.1696 23.1879 63.5711 23.2256 62.9535 23.2256C62.6989 23.2256 62.597 23.1439 62.6225 22.8922C62.6288 22.7791 62.6288 22.6657 62.6225 22.5525C62.6225 15.2846 62.6225 8.01448 62.6225 0.742314C62.6225 0.528427 62.4697 0.169851 62.7562 0.113234C62.9385 0.0428128 63.136 0.0197166 63.33 0.0461464C63.5239 0.0725763 63.7077 0.14765 63.864 0.264212C64.9845 1.33365 66.1178 2.3905 67.2447 3.45365L80.3027 15.771C80.411 15.8717 80.5319 15.9723 80.6593 16.0793C80.7544 15.8951 80.7858 15.6851 80.7484 15.4817C80.7484 10.6503 80.7484 5.8127 80.7484 0.981363C80.7484 0.496971 80.8821 0.352283 81.3851 0.352283C81.9045 0.383779 82.4254 0.383779 82.9449 0.352283C83.2505 0.352283 83.3396 0.452937 83.3205 0.742314C83.3014 1.03169 83.3205 1.32107 83.3205 1.61044C83.3205 8.70647 83.3205 15.8004 83.3205 22.8922C83.3205 23.0935 83.4733 23.4144 83.1932 23.4836C83.0276 23.5517 82.8462 23.5737 82.6689 23.5471C82.4915 23.5205 82.3249 23.4463 82.1872 23.3326C81.0413 22.2443 79.8825 21.1623 78.7301 20.0802L65.7485 7.96415C65.6594 7.86979 65.532 7.78172 65.3347 7.593Z" fill="currentColor"></path><path d="M72.338 42.3811C72.338 45.602 72.338 48.8292 72.338 52.0564C72.338 52.5659 72.1852 52.6855 71.7014 52.654C70.6318 52.654 69.5558 52.654 68.4862 52.654C68.0532 52.654 67.9514 52.5345 67.9514 52.1193C67.9514 45.6943 67.9514 39.2756 67.9514 32.8631C67.9514 32.1712 67.9514 32.1712 67.2383 32.1712C65.01 32.1712 62.7816 32.1712 60.566 32.1712C60.1968 32.1712 60.044 32.0957 60.0694 31.6994C60.0981 31.2028 60.0981 30.705 60.0694 30.2084C60.0694 29.9253 60.1649 29.8247 60.4323 29.8624C60.496 29.8624 60.5597 29.8624 60.6297 29.8624C66.9964 29.8624 73.3185 29.8624 79.6661 29.8624C80.1499 29.8624 80.3027 30.0008 80.2391 30.4538C80.2072 30.8852 80.2072 31.3183 80.2391 31.7497C80.2391 32.0957 80.1308 32.1837 79.7934 32.1775C77.4887 32.1775 75.1839 32.1775 72.8792 32.1775C72.4081 32.1775 72.2934 32.3096 72.2934 32.7625C72.3444 35.9582 72.338 39.1728 72.338 42.3811Z" fill="currentColor"></path><path d="M121.431 15.8088C121.453 14.2892 121.928 12.8097 122.797 11.5561C123.667 10.3024 124.892 9.33055 126.318 8.76242C127.745 8.1943 129.309 8.05528 130.816 8.3628C132.322 8.67032 133.703 9.41069 134.785 10.4909C135.866 11.5712 136.601 12.9432 136.896 14.4346C137.192 15.9261 137.035 17.4705 136.445 18.874C135.855 20.2775 134.858 21.4775 133.581 22.3233C132.303 23.1692 130.801 23.6231 129.262 23.6283C128.226 23.6308 127.2 23.4298 126.243 23.0367C125.287 22.6436 124.419 22.0664 123.69 21.3387C122.961 20.611 122.386 19.7473 121.998 18.798C121.611 17.8486 121.418 16.8325 121.431 15.8088ZM132.599 15.683C132.616 15.0163 132.578 14.3492 132.484 13.6888C132.405 12.5693 132.041 11.4875 131.427 10.5434C131.187 10.1983 130.866 9.91509 130.493 9.71743C130.119 9.51977 129.703 9.41341 129.279 9.40725C128.855 9.40109 128.436 9.49531 128.056 9.68203C127.677 9.86874 127.348 10.1425 127.098 10.4805C126.736 10.9569 126.474 11.5002 126.327 12.0783C125.841 14.0135 125.731 16.0222 126.003 17.998C126.067 19.0743 126.395 20.119 126.958 21.0427C127.199 21.4222 127.534 21.735 127.931 21.9519C128.328 22.1687 128.774 22.2824 129.227 22.2824C129.681 22.2824 130.127 22.1687 130.524 21.9519C130.921 21.735 131.256 21.4222 131.497 21.0427C131.772 20.6412 131.986 20.2026 132.134 19.7405C132.498 18.4194 132.654 17.051 132.599 15.683Z" fill="currentColor"></path><path d="M93.5008 21.4328C93.2723 21.9826 92.898 22.4615 92.4174 22.8191C91.9368 23.1766 91.3675 23.3996 90.7695 23.4647C89.822 23.6093 88.854 23.3964 88.0579 22.8685C87.2618 22.3406 86.6957 21.5362 86.472 20.615C86.3147 19.903 86.3733 19.161 86.6406 18.4818C86.9078 17.8027 87.3718 17.2164 87.9746 16.7964C88.9412 16.0768 90.0011 15.4886 91.1261 15.0476C92.0429 14.6513 92.966 14.255 93.8892 13.8712C93.998 13.8405 94.092 13.7721 94.1539 13.6785C94.2159 13.585 94.2417 13.4725 94.2266 13.3617C94.2266 12.915 94.2266 12.4621 94.2266 12.0154C94.2474 11.4773 94.0524 10.9528 93.6841 10.5558C93.3157 10.1589 92.8037 9.92156 92.2593 9.89543C91.0422 9.7828 89.8152 9.95077 88.6749 10.3861C88.3184 10.5056 88.1592 10.4679 88.2165 10.059C88.2198 10.0108 88.2198 9.96248 88.2165 9.91431C88.2165 8.65615 88.2165 8.65614 89.4325 8.42338C90.8567 8.08859 92.332 8.02243 93.781 8.22837C96.646 8.71276 98.1294 10.4427 98.1676 13.4057C98.1994 15.6012 98.1676 17.8093 98.1676 19.9985C98.1676 20.5395 98.2186 21.0868 98.2758 21.6278C98.2719 21.9293 98.3778 22.2223 98.5741 22.4532C98.7704 22.6841 99.0441 22.8377 99.3454 22.8859C98.8214 23.2072 98.2295 23.405 97.6156 23.4639C97.0018 23.5228 96.3824 23.4413 95.8056 23.2256C95.3453 23.0297 94.955 22.7021 94.6849 22.285C94.4148 21.8679 94.2774 21.3805 94.2903 20.8855C94.1757 19.1555 94.2903 17.4255 94.2457 15.6893C94.2457 15.0602 94.2457 15.0602 93.7109 15.3747C92.9173 15.7813 92.181 16.2889 91.5208 16.8845C91.0639 17.2989 90.7205 17.8207 90.5224 18.4014C90.3242 18.9821 90.2778 19.6029 90.3875 20.2061C90.4185 20.5283 90.5354 20.8367 90.7263 21.0998C90.9173 21.3629 91.1754 21.5713 91.4744 21.7036C91.7734 21.836 92.1026 21.8877 92.4284 21.8533C92.7542 21.819 93.0649 21.6999 93.3289 21.5083L93.5008 21.4328Z" fill="currentColor"></path><path d="M170.117 22.9048C169.585 23.2349 168.981 23.436 168.355 23.4918C167.728 23.5475 167.098 23.4563 166.514 23.2256C166.046 23.0209 165.654 22.6783 165.39 22.2448C165.127 21.8112 165.006 21.3079 165.043 20.8037C164.992 19.0674 165.011 17.3375 165.043 15.6012C165.043 15.2175 164.98 15.1042 164.604 15.3181C163.692 15.7792 162.855 16.373 162.121 17.0795C161.724 17.4834 161.43 17.9745 161.263 18.5126C161.096 19.0507 161.06 19.6203 161.159 20.1746C161.174 20.5322 161.292 20.8782 161.498 21.1722C161.705 21.4663 161.992 21.6964 162.325 21.8355C162.659 21.9746 163.026 22.0172 163.383 21.9581C163.74 21.899 164.073 21.7409 164.343 21.502C164.166 21.8976 163.912 22.2547 163.596 22.5527C163.279 22.8507 162.905 23.0837 162.496 23.2382C161.993 23.4363 161.453 23.5275 160.912 23.5061C160.37 23.4846 159.84 23.3509 159.354 23.1136C158.868 22.8763 158.438 22.5407 158.093 22.1287C157.747 21.7167 157.492 21.2374 157.346 20.7219C157.151 19.9757 157.197 19.1881 157.476 18.4687C157.756 17.7494 158.256 17.134 158.906 16.7084C159.989 15.9434 161.169 15.3196 162.414 14.8526C163.171 14.5318 163.923 14.2235 164.687 13.8838C164.811 13.8511 164.919 13.7736 164.988 13.6665C165.058 13.5594 165.084 13.4304 165.062 13.305C165.03 12.7766 165.094 12.2482 165.011 11.7198C164.972 11.2502 164.764 10.8099 164.426 10.4778C164.088 10.1458 163.641 9.94379 163.165 9.90801C161.936 9.77216 160.691 9.92965 159.536 10.3672C159.084 10.5182 159.001 10.4302 159.008 9.9835C159.008 8.64985 159.008 8.64985 160.351 8.39822C161.814 8.06769 163.329 8.02707 164.808 8.27869C167.463 8.80712 168.914 10.5056 168.952 13.2044C168.984 15.2237 168.952 17.2494 168.952 19.2687C168.948 20.006 168.982 20.743 169.054 21.4768C169.073 22.1122 169.194 22.735 170.117 22.9048Z" fill="currentColor"></path><path d="M176.993 11.7198C176.993 15.4125 176.993 19.1052 176.993 22.7916C176.993 23.1627 176.911 23.2948 176.516 23.2823C175.51 23.2571 174.504 23.2571 173.498 23.2823C173.052 23.2823 172.925 23.1816 172.925 22.7287C172.925 16.9034 172.925 11.0781 172.925 5.25282C172.925 3.80593 172.925 2.36534 172.925 0.918455C172.925 0.459226 173.091 0.345991 173.498 0.327118C174.485 0.26421 175.472 0.201302 176.459 0.100649C176.879 0.0629041 177.006 0.157267 177 0.597623C177 3.23347 177 5.86303 177 8.49258L176.993 11.7198Z" fill="currentColor"></path><path d="M111.257 21.0427C110.978 21.7165 110.507 22.296 109.901 22.7112C109.296 23.1264 108.582 23.3597 107.845 23.3829C104.744 23.6408 102.643 21.848 102.491 18.7655C102.351 16.0227 102.459 13.2799 102.44 10.5308C102.44 9.73187 102.471 9.8451 101.727 9.83881C101.516 9.83881 101.306 9.83881 101.09 9.83881C100.873 9.83881 100.778 9.9143 100.74 9.69412C100.702 9.47394 100.867 9.45507 100.994 9.39217C101.831 8.9303 102.61 8.37518 103.318 7.73769C104.323 6.84754 105.207 5.83257 105.948 4.7181C106.075 4.51679 106.196 4.32807 106.47 4.39098C106.744 4.45389 106.648 4.73697 106.648 4.91311C106.648 5.85673 106.686 6.80036 106.648 7.75027C106.648 8.21579 106.794 8.31644 107.227 8.30385C108.138 8.2724 109.042 8.30385 109.952 8.30385C110.232 8.30385 110.347 8.35418 110.353 8.66872C110.353 9.92688 110.392 9.92688 109.144 9.92688C108.443 9.92688 107.743 9.92688 107.049 9.92688C106.756 9.92688 106.654 10.015 106.654 10.3106C106.654 13.3239 106.654 16.3435 106.654 19.3631C106.612 19.848 106.724 20.3339 106.975 20.7526C107.226 21.1712 107.604 21.5015 108.055 21.697C108.538 21.921 109.076 21.9998 109.604 21.9238C110.131 21.8477 110.624 21.6201 111.022 21.2692L111.257 21.0427Z" fill="currentColor"></path><path d="M83.5434 40.5757C83.728 40.4813 83.728 40.2863 83.798 40.1416C84.4984 38.7136 85.4788 37.6253 87.1469 37.3359C87.6921 37.2496 88.2495 37.2775 88.7831 37.4177C89.0251 37.4743 89.1397 37.575 89.1015 37.8455C88.9869 38.5752 88.8977 39.3049 88.815 40.041C88.7831 40.3052 88.7195 40.3492 88.4521 40.2297C87.9531 40.0054 87.4049 39.909 86.8583 39.9496C86.3116 39.9901 85.7841 40.1662 85.3246 40.4616C84.8651 40.7569 84.4884 41.1621 84.2293 41.6394C83.9703 42.1168 83.8373 42.651 83.8426 43.1926C83.8426 46.1745 83.8426 49.1626 83.8426 52.1445C83.8426 52.5471 83.7216 52.6603 83.3205 52.654C82.2509 52.654 81.1813 52.654 80.1372 52.654C79.7997 52.654 79.6979 52.5597 79.6979 52.2199C79.6979 47.5815 79.6979 42.9431 79.6979 38.3047C79.6979 37.9839 79.7807 37.8769 80.1245 37.8518C81.124 37.7951 82.13 37.7008 83.1295 37.5938C83.467 37.5561 83.5816 37.6316 83.5752 37.9902C83.5306 38.8457 83.5434 39.7075 83.5434 40.5757Z" fill="currentColor"></path><path d="M145.319 10.5685C145.536 9.96465 145.902 9.4241 146.385 8.99653C146.867 8.56895 147.451 8.26804 148.082 8.12142C151.132 7.32249 153.71 9.1657 153.812 12.2796C153.895 14.9092 153.812 17.545 153.851 20.1746C153.848 20.6897 153.878 21.2044 153.94 21.7158C153.946 22.0229 154.069 22.3162 154.285 22.5369C154.502 22.7575 154.794 22.889 155.105 22.9048C153.71 23.5339 152.412 23.7541 151.107 23.1753C149.903 22.6469 149.585 21.5712 149.572 20.3885C149.572 17.8218 149.572 15.2489 149.572 12.6823C149.582 12.3777 149.569 12.0728 149.534 11.7701C149.222 9.88285 147.357 9.15941 145.714 10.2855C145.567 10.3735 145.447 10.4742 145.319 10.5685Z" fill="currentColor"></path><path d="M144.492 15.7333V22.6532C144.492 23.2823 144.492 23.2823 143.855 23.2823C142.798 23.2823 141.741 23.2823 140.672 23.2823C140.328 23.2823 140.188 23.2131 140.188 22.8356C140.188 18.1972 140.188 13.5609 140.188 8.92665C140.188 8.59324 140.302 8.49887 140.633 8.48C141.735 8.42338 142.836 8.3416 143.931 8.22837C144.345 8.18433 144.492 8.22836 144.485 8.70647C144.479 11.0466 144.492 13.3931 144.492 15.7333Z" fill="currentColor"></path><path d="M118.312 15.7207C118.312 18.0609 118.312 20.4074 118.312 22.7475C118.312 23.169 118.204 23.2948 117.771 23.2823C116.682 23.2823 115.593 23.2823 114.511 23.2823C114.186 23.2823 114.059 23.2131 114.059 22.8608C114.059 18.2265 114.059 13.5923 114.059 8.9581C114.059 8.64985 114.167 8.54291 114.46 8.51774C115.625 8.42338 116.79 8.33531 117.949 8.21578C118.363 8.17175 118.305 8.41709 118.305 8.64985L118.312 15.7207Z" fill="currentColor"></path><path d="M106.502 52.1633C105.095 52.7924 103.77 53.0252 102.427 52.3835C101.999 52.1776 101.641 51.8547 101.394 51.4532C101.146 51.0518 101.021 50.5886 101.033 50.1188C100.982 48.8607 101.001 47.6025 101.001 46.3443C101.001 43.7148 101.001 41.0852 101.001 38.4557C101.001 38.0468 101.141 37.9335 101.516 37.9147C102.618 37.8517 103.719 37.7826 104.821 37.6756C105.241 37.6316 105.292 37.7763 105.292 38.1348C105.292 41.9513 105.292 45.7698 105.292 49.5904C105.275 50.038 105.296 50.4862 105.356 50.9303C105.36 51.239 105.48 51.5351 105.691 51.7625C105.902 51.9898 106.191 52.1325 106.502 52.1633Z" fill="currentColor"></path></svg>