<svg xmlns="http://www.w3.org/2000/svg" width="52" height="51" viewBox="0 0 52 51" fill="none"><path fill-rule="evenodd" clip-rule="evenodd" d="M25.9811 0.67627C33.3923 0.676271 39.8033 4.83978 42.7121 11.5417C45.621 18.2439 44.2426 25.6759 39.1148 30.9371L37.3294 32.769C35.5353 34.6099 34.396 36.9174 34.035 39.4422L34.001 39.6795C34.7782 39.9134 35.3452 40.625 35.3452 41.4648V43.2875C35.3452 44.317 34.4934 45.1545 33.4464 45.1545H33.272V45.9177C33.272 47.1695 32.2363 48.1878 30.9632 48.1878H30.3445C30.0004 49.7623 28.5751 50.9465 26.8725 50.9465H24.9902C23.2875 50.9465 21.8622 49.7623 21.5182 48.1878H20.8995C19.6264 48.1878 18.5907 47.1695 18.5907 45.9177V45.1545H18.5159C17.4688 45.1545 16.617 44.317 16.617 43.2875V41.4648C16.6171 40.625 17.184 39.9134 17.9612 39.6795L17.9273 39.4422C17.5662 36.9174 16.427 34.6099 14.6329 32.769L12.8474 30.9371C12.5951 30.6783 12.3469 30.409 12.1099 30.1369C11.8415 29.8289 11.8781 29.3652 12.1914 29.1015C12.5047 28.8377 12.9762 28.8735 13.2444 29.1815C13.4633 29.433 13.6927 29.6818 13.9258 29.921L15.7113 31.7529C17.1781 33.2579 18.2524 35.0419 18.8851 36.9947L22.1294 35.0037C23.0867 34.4161 24.16 34.0729 25.2532 33.9724V31.7696C19.9842 31.3922 15.8144 27.0569 15.8144 21.7816C15.8144 19.8428 17.0013 17.1377 19.3422 13.7413C19.5735 13.4055 20.038 13.3178 20.3794 13.5454C20.7208 13.7729 20.81 14.2295 20.5786 14.5652C20.4613 14.7355 20.3476 14.9035 20.2364 15.07L25.2532 17.9072V13.0577L22.7492 11.6417C22.6394 11.7805 22.5293 11.9207 22.4183 12.0632C22.1677 12.3853 21.6991 12.4468 21.3714 12.2003C21.0438 11.954 20.9813 11.4931 21.2318 11.1709C22.7981 9.15713 24.2774 7.49534 25.0198 6.68386C25.2696 6.41089 25.6268 6.2543 26 6.2543C26.3733 6.2543 26.7305 6.41089 26.9803 6.68386C29.1398 9.0441 36.1857 17.1082 36.1857 21.7817C36.1857 24.5685 35.0491 27.1568 32.9856 29.0696C32.8413 29.2034 32.6571 29.2696 32.4734 29.2696C32.2749 29.2696 32.0768 29.1924 31.9299 29.0391C31.647 28.744 31.6609 28.2793 31.961 28.0011C33.7221 26.3686 34.692 24.1598 34.692 21.7817C34.692 21.7398 34.6906 21.6968 34.6891 21.6537L26.747 26.1453V30.2966C27.6969 30.2176 28.618 29.9878 29.494 29.6092C29.8718 29.4459 30.3122 29.6146 30.4782 29.9859C30.6442 30.3572 30.4727 30.7904 30.0951 30.9536C29.0284 31.4147 27.9051 31.688 26.7468 31.77V33.9866C27.7924 34.1025 28.8161 34.441 29.7333 35.0039L33.0603 37.0457C33.6908 35.0729 34.7714 33.2711 36.2509 31.7531L38.0364 29.9213C42.7431 25.0921 44.0083 18.2705 41.3383 12.1185C38.6683 5.96658 32.7838 2.14492 25.9812 2.14492C22.8338 2.14492 19.9298 2.92014 17.35 4.4492C14.9734 5.85772 12.9667 7.88153 11.5472 10.3016C10.1069 12.757 9.31386 15.5345 9.25371 18.3335C9.19078 21.2603 9.94294 24.1418 11.4286 26.6667C11.6351 27.0178 11.5131 27.467 11.1562 27.67C10.7992 27.873 10.3423 27.7532 10.1357 27.4021C8.51315 24.6446 7.69173 21.4979 7.76033 18.3025C7.82576 15.2572 8.6878 12.2368 10.2533 9.56795C11.7988 6.93299 13.9863 4.72799 16.579 3.19139C19.3949 1.52253 22.5581 0.67627 25.9811 0.67627ZM23.0713 48.1883C23.371 48.9425 24.1183 49.4783 24.9902 49.4783H26.8725C27.7445 49.4783 28.4915 48.9425 28.7912 48.1883H23.0713ZM20.0844 45.9181C20.0844 46.3601 20.45 46.7196 20.8995 46.7196H30.9632C31.4127 46.7196 31.7783 46.3601 31.7783 45.9181V45.1549H20.0844V45.9181ZM18.5159 41.067C18.2924 41.067 18.1107 41.2457 18.1107 41.4653V43.2879C18.1107 43.5075 18.2924 43.6862 18.5159 43.6862H33.4464C33.6698 43.6862 33.8515 43.5075 33.8515 43.2879V41.4653C33.8515 41.2457 33.6698 41.067 33.4464 41.067H18.5159ZM28.9424 36.2499C27.1132 35.1274 24.7494 35.1273 22.9203 36.2499L19.2748 38.487C19.3248 38.7355 19.3703 38.9855 19.4064 39.2381L19.4579 39.5982H32.5044L32.5559 39.2381C32.5894 39.0039 32.631 38.772 32.6765 38.5413L28.9424 36.2499ZM17.3109 21.6538C17.3093 21.6969 17.3081 21.7399 17.3081 21.7819C17.3081 26.247 20.8088 29.9226 25.2532 30.2964V26.1455L17.3109 21.6538ZM19.4407 16.3144C18.5551 17.7676 17.937 19.0492 17.6023 20.1242L25.2532 24.4511V19.6017L19.4407 16.3144ZM26.7468 19.6017V24.4511L34.3989 20.1235C34.0645 19.0486 33.4463 17.7681 32.5598 16.3142L26.7468 19.6017ZM26.7468 13.0579V17.9074L31.7637 15.0702C31.526 14.7143 31.2751 14.3503 31.0096 13.9773C30.4307 13.1642 29.8316 12.3758 29.251 11.6418L26.7468 13.0579ZM25.2532 8.64449C24.8027 9.15626 24.2679 9.77801 23.6891 10.4791L25.2532 11.3637V8.64449ZM26.7468 11.3637L28.3109 10.4792C27.729 9.77437 27.1924 9.15107 26.7468 8.64468V11.3637Z" fill="white"></path><path d="M6.01917 29.7125C6.37286 29.5037 6.83157 29.6164 7.04388 29.964C7.25628 30.3117 7.14179 30.7628 6.78819 30.9717L5.0557 31.9947C4.93543 32.0658 4.8028 32.0996 4.67197 32.0996C4.41835 32.0996 4.1711 31.9725 4.03099 31.7432C3.8186 31.3955 3.9331 30.9444 4.28668 30.7356L6.01917 29.7125Z" fill="white"></path><path d="M44.9562 29.9639C45.1685 29.6163 45.6272 29.5037 45.9809 29.7125L47.7134 30.7356C48.067 30.9444 48.1815 31.3955 47.9691 31.7431C47.829 31.9725 47.5817 32.0995 47.3281 32.0995C47.1973 32.0995 47.0648 32.0656 46.9444 31.9946L45.2119 30.9716C44.8584 30.7627 44.7439 30.3116 44.9562 29.9639Z" fill="white"></path><path d="M3.284 18.3335C3.69645 18.3335 4.03088 18.6623 4.03089 19.0678C4.03089 19.4734 3.69645 19.8022 3.284 19.8022H1.442C1.02955 19.8022 0.695118 19.4734 0.695118 19.0678C0.695119 18.6623 1.02955 18.3335 1.442 18.3335H3.284Z" fill="white"></path><path d="M50.558 18.3335C50.9704 18.3335 51.3049 18.6623 51.3049 19.0678C51.3049 19.4734 50.9704 19.8022 50.558 19.8022H48.716C48.3035 19.8022 47.9691 19.4734 47.9691 19.0678C47.9691 18.6623 48.3035 18.3335 48.716 18.3335H50.558Z" fill="white"></path><path d="M4.0309 6.6107C4.2432 6.26302 4.70191 6.15045 5.05561 6.35929L6.78819 7.38228C7.14179 7.59112 7.25628 8.04224 7.04378 8.38982C6.90367 8.61921 6.65642 8.74622 6.4028 8.74622C6.27197 8.74622 6.13945 8.7124 6.01907 8.64133L4.28659 7.61825C3.9331 7.4094 3.8186 6.95837 4.0309 6.6107Z" fill="white"></path><path d="M46.9444 6.35929C47.298 6.15045 47.7568 6.26302 47.9691 6.6107C48.1815 6.95837 48.067 7.4094 47.7134 7.61825L45.9809 8.64133C45.8606 8.7124 45.728 8.74622 45.5972 8.74622C45.3436 8.74622 45.0962 8.61921 44.9562 8.38992C44.7438 8.04224 44.8583 7.59112 45.2119 7.38228L46.9444 6.35929Z" fill="white"></path></svg>