<svg xmlns="http://www.w3.org/2000/svg" width="123" height="61" viewBox="0 0 123 61" fill="none"><path d="M11.2195 42.1796C10.5997 41.3908 10.969 40.6148 11.2959 39.8775C12.5185 37.1253 14.2674 34.7332 16.0503 32.3154C18.4276 29.1174 21.1444 26.2281 23.8782 23.3387C24.3536 22.8328 25.105 22.3098 24.0947 21.5725C23.8909 21.4267 23.9758 21.1781 24.1202 20.9981C24.9056 20.0197 25.9297 19.2648 27.0917 18.8075C26.9643 19.8963 25.8776 20.0935 25.7545 21.0023C28.5095 18.9575 30.8231 16.3897 33.5187 14.2462C31.0789 15.1315 28.7575 16.3195 26.6078 17.7829C24.3204 19.387 21.9197 20.8197 19.4251 22.0698C19.0006 22.2756 18.4021 22.79 18.1092 22.3141C17.8163 21.8383 18.5592 21.5339 18.92 21.2681C21.2038 19.592 23.6787 18.2159 26.0856 16.7326C28.6091 15.1668 30.8631 13.1962 32.7588 10.8982C33.4678 10.0408 33.3616 9.71498 32.2707 9.52636C31.5222 9.38779 30.7515 9.43603 30.0257 9.6669C29.2999 9.89777 28.641 10.3043 28.1063 10.851C25.7248 13.0759 23.3221 15.2794 20.7369 17.2813C19.1881 18.52 17.5601 19.6542 15.8636 20.6765C15.0886 21.1727 14.2222 21.5052 13.3165 21.654C12.0855 21.7911 11.6185 21.2253 11.9581 19.9949C12.2538 19.1143 12.7428 18.3127 13.3887 17.65C16.0311 14.6148 19.3418 12.2479 23.0547 10.7396C24.1163 10.2621 25.2066 9.85264 26.3191 9.5135C29.9996 8.49751 31.4386 5.33808 33.0899 2.38441C33.5145 1.59563 32.9541 1.27411 32.2664 1.2098C30.7183 1.08304 29.1603 1.24285 27.669 1.68136C25.6726 2.26213 23.7307 3.01955 21.8661 3.94484C17.3111 6.11829 12.6755 8.08597 7.96778 9.88217C5.51323 10.7814 3.17558 11.9776 1.0059 13.4446C0.74271 13.6289 0.381884 13.9804 0.093221 13.5603C-0.136011 13.2259 0.0932206 12.853 0.394619 12.6344C0.864552 12.2602 1.36923 11.9329 1.90161 11.6569C5.04294 10.1394 8.24371 8.75329 11.5039 7.49867C14.4372 6.3755 17.2305 4.92654 20.0746 3.5976C23.0462 2.20436 26.0177 0.811127 29.2609 0.168094C30.3736 -0.0454506 31.5152 -0.0556176 32.6315 0.138083C34.1724 0.395296 34.7031 1.37271 34.113 2.85597C33.5229 4.33923 32.5423 5.46239 31.6169 6.67558C31.2179 7.19858 30.8273 7.73445 30.2755 8.47608C31.0047 8.42317 31.7367 8.42317 32.4659 8.47608C34.7328 8.84046 35.0979 9.81787 33.6673 11.6141C33.1239 12.3 32.5254 12.9387 31.8037 13.7575C32.9456 13.3803 33.8668 13.0545 34.8007 12.7844C35.2507 12.6558 35.8789 12.3557 36.1591 12.8315C36.4393 13.3074 35.845 13.6889 35.4926 14.0147C33.6715 15.5923 31.8249 17.1356 29.9996 18.7046C29.6055 18.94 29.3053 19.3069 29.1505 19.742C31.7443 18.7903 34.1682 17.6843 36.5921 16.5697C39.4787 15.2451 42.3314 13.8561 45.2138 12.5186C45.5619 12.3557 46.0628 11.927 46.343 12.39C46.6486 12.9259 45.9779 13.1702 45.6808 13.5346C44.1823 15.3608 42.2592 16.6812 40.2259 18.0658C40.4244 18.1687 40.6457 18.2184 40.8687 18.2102C41.0917 18.2019 41.3089 18.136 41.4994 18.0187C43.5748 17.3092 45.5 16.2128 47.175 14.7864C47.5995 14.4177 48.024 14.0233 48.4485 13.6804C48.873 13.3374 49.3527 12.7072 49.8876 13.0716C50.4225 13.436 49.8876 14.049 49.722 14.5034C49.3867 15.3265 49.8112 15.408 50.4437 15.408C50.7451 15.408 51.1866 15.3051 51.2927 15.6695C51.4073 16.0982 50.9446 16.2353 50.6602 16.4025C49.7687 16.9298 48.7414 17.2599 47.9901 18.143C48.6226 18.3745 49.1107 18.143 49.5947 18.0101C51.3133 17.4846 52.9679 16.7656 54.5274 15.8667C55.1642 15.5237 56.0981 14.6749 56.5353 15.3608C56.8962 15.9224 55.6863 16.3468 55.1005 16.7369C54.001 17.4742 52.8464 18.1301 51.5941 18.8803C52.2606 19.2233 52.7105 18.9489 53.1605 18.8803C56.2312 18.3845 59.0967 17.0098 61.4171 14.9193C65.5952 11.2405 70.2216 8.1158 75.1838 5.62101C75.92 5.28543 76.6773 4.99902 77.4507 4.76363C77.6435 4.66451 77.8659 4.64075 78.075 4.69692C78.2842 4.75309 78.4654 4.88522 78.5841 5.068C78.86 5.54384 78.4228 5.7882 78.1596 6.03684C76.4616 7.70015 74.4367 8.97336 72.4755 10.298C68.4172 13.0416 64.2825 15.7209 59.8932 17.9501C59.551 18.134 59.2193 18.3372 58.8998 18.5588C58.7773 18.6731 58.6664 18.7995 58.5687 18.9361C59.1206 19.1976 59.5154 18.8889 59.9017 18.756C61.4214 18.2202 62.6355 17.157 63.9684 16.2953C64.3632 16.0424 64.9193 15.5194 65.2419 16.0038C65.5645 16.4883 64.8726 16.8098 64.5542 17.1484C64.1509 17.5771 63.5566 17.8 63.1958 18.4345C63.8579 18.5585 64.5421 18.4559 65.14 18.143C66.8866 17.4718 68.5701 16.644 70.1704 15.6695C70.4044 15.5084 70.6498 15.3651 70.9048 15.2408C71.2826 15.0822 71.7538 14.7864 72.051 15.2408C72.3481 15.6952 71.9236 15.9653 71.6944 16.2611C71.376 16.6897 71.0237 17.0584 70.6246 17.5471C71.3081 17.62 71.7453 17.277 72.2165 17.0756C73.8745 16.2871 75.6268 15.7194 77.4295 15.3865C78.1299 15.2794 78.8091 15.1422 79.4543 15.6309C79.7982 15.8924 80.2015 15.6909 80.5708 15.588C81.216 15.4123 81.8443 15.1808 82.5023 15.0436C83.1602 14.9064 83.7418 14.9193 83.3513 15.9524C83.0499 16.7412 83.8267 16.6983 84.2003 16.7198C85.4722 16.7493 86.7353 16.4992 87.902 15.9867C88.2254 15.8508 88.5609 15.7461 88.9038 15.6738C89.0948 15.6352 89.3283 15.618 89.4302 15.8881C89.4896 16.0853 89.358 16.2139 89.2307 16.3468C87.677 18.0144 83.4574 18.2845 81.8698 16.7755C81.4453 16.3468 81.0717 16.4797 80.6344 16.6126C78.3604 17.3725 76.1479 18.3083 74.0164 19.4119C73.5919 19.6263 72.9339 20.1493 72.6156 19.5791C72.2547 18.9275 73.0783 18.666 73.4985 18.3488C74.2117 17.8129 75.1032 17.53 75.689 16.7883C72.7174 17.8086 69.6695 18.7003 67.339 21.0752C64.4481 24.0075 61.6633 27.0297 58.9465 30.1205C57.4225 31.8567 55.8604 33.5501 53.9459 34.8661C53.0077 35.5092 52.0229 36.0622 50.83 36.0322C50.0616 36.0322 49.6796 35.6978 49.6753 34.8618C49.7081 34.0369 50.0423 33.2534 50.6135 32.6627C53.0926 29.6061 56.0854 27.1154 59.18 24.7448C61.269 23.1655 63.4507 21.7153 65.7131 20.4022C66.8942 19.7464 67.9529 18.8876 68.8417 17.8643C68.3366 17.6629 68.0182 17.9415 67.7083 18.0916C65.7089 19.0475 63.65 19.7077 61.3959 19.5062C60.6743 19.4376 60.0248 19.7934 59.3498 19.9864C58.5729 20.205 57.8598 20.2007 57.4013 19.4162C57.0787 18.8589 56.6457 19.0261 56.2 19.129C54.9689 19.4248 53.7463 19.7763 52.5025 19.9864C51.5389 20.1493 50.4479 20.5179 49.8579 19.189C49.722 18.8889 49.2763 19.0218 48.9707 19.0261C48.1599 19.0261 47.3491 19.0775 46.5383 19.0861C45.9057 19.0861 45.7911 18.7946 46.1137 18.2888C46.5829 17.7078 47.1203 17.1867 47.7141 16.7369C48.0155 16.4625 48.5631 16.1496 48.2745 15.7381C47.9179 15.2408 47.5486 15.8281 47.2472 16.0381C45.1247 17.4871 42.9342 18.7303 40.4296 19.339C40.158 19.4033 39.7759 19.5405 39.6103 19.4162C38.6043 18.666 37.768 19.2619 36.8893 19.6691C36.6922 19.7478 36.4849 19.7969 36.2737 19.8149C35.8492 19.8749 35.3653 19.8706 35.17 19.4119C34.9747 18.9532 35.3865 18.7132 35.6837 18.4688C35.9808 18.2244 36.1888 18.1001 36.5794 17.8215C36.0092 17.8404 35.453 18.004 34.962 18.2973C32.5084 19.3733 30.1227 20.6037 27.5969 21.5168C27.2032 21.6764 26.8453 21.9139 26.5441 22.2155C21.1428 27.0943 16.5105 32.777 12.8071 39.0673C12.4611 39.5781 12.2161 40.1516 12.0855 40.7563C13.1807 40.0275 13.8557 39.0801 14.658 38.2699C15.1292 37.7898 15.6046 37.3139 16.0928 36.851C16.2371 36.7181 16.4409 36.5294 16.6446 36.7181C16.8484 36.9067 16.6871 37.121 16.564 37.2882C15.2268 39.0716 14.017 40.9749 12.0642 42.1796H11.2195ZM26.8158 10.3323C26.6732 10.3323 26.531 10.3467 26.3913 10.3752C21.4705 11.8466 17.0883 14.7497 13.792 18.7217C13.5798 18.9608 13.396 19.2241 13.2444 19.5062C13.1 19.7977 12.7392 20.1278 13.0661 20.4579C13.3929 20.788 13.7368 20.5865 14.0594 20.4579C14.6095 20.2213 15.1453 19.9521 15.664 19.652C19.4609 17.2615 22.9881 14.4599 26.1833 11.2968C26.4465 11.0439 26.8158 10.8167 26.8158 10.3323ZM65.0212 22.0483C64.8326 22.067 64.6464 22.1044 64.4651 22.1598C59.7894 25.1024 55.5467 28.6942 51.8615 32.8299C51.5626 33.1812 51.2928 33.5569 51.055 33.953C50.9149 34.1802 50.6602 34.4503 50.8555 34.7247C51.0507 34.999 51.4285 34.879 51.7257 34.7933C53.0289 34.4289 54.0138 33.5586 54.9816 32.6798C57.0829 30.7679 58.8616 28.543 60.8313 26.511C62.1855 25.1178 63.4887 23.6774 65.0212 22.0483ZM76.8351 6.18688C71.0024 8.54037 66.0994 12.3643 61.2601 16.2825C66.6288 13.2027 71.8256 9.8267 76.8266 6.16973L76.8351 6.18688ZM37.7425 18.1901C38.9562 17.7647 40.0611 17.0721 40.9772 16.1625C39.7924 16.6409 38.6959 17.3177 37.734 18.1644L37.7425 18.1901Z" fill="white"></path><path d="M65.0212 23.3773C65.4797 23.6945 66.04 23.6045 66.5409 23.7545C68.8205 24.449 69.5676 25.7522 68.863 28.0414C68.014 30.8107 66.4221 33.1514 64.5712 35.3291C64.117 35.8564 63.65 36.3708 63.0685 37.0439C64.4736 37.1682 65.6834 36.9496 66.889 36.9067C67.5597 36.8228 68.2363 37.0074 68.7738 37.4211C69.3469 37.9184 69.9454 38.3985 69.4785 39.5903C70.5716 38.7809 71.9069 38.3753 73.2608 38.4414C73.6132 38.4414 74.0249 38.4414 74.2202 38.7672C74.4494 39.1744 74.1608 39.5303 73.9146 39.826C72.7132 41.2836 71.2317 42.4453 69.8605 43.7228C69.1559 44.383 68.3705 44.966 67.8611 45.8663C69.5592 45.0904 71.219 44.2458 72.5731 42.9555C73.4567 42.0775 74.6059 41.5236 75.8376 41.3822C77.1111 41.2322 78.3591 41.1164 79.6199 41.0135C79.9164 40.9523 80.2241 40.9812 80.5044 41.0964C80.7847 41.2116 81.0249 41.408 81.1948 41.6608C81.5047 42.1753 81.8358 42.0338 82.2518 41.8066C83.1008 41.3522 83.9498 40.9492 84.7989 40.5205C85.0231 40.4175 85.2626 40.3523 85.5078 40.3276C86.1912 40.2505 86.9469 40.2204 87.2865 40.9278C87.6261 41.6351 86.9681 42.111 86.4884 42.4839C85.8516 42.9812 85.1427 43.3756 84.3022 43.92C85.0695 43.8348 85.8013 43.548 86.4247 43.0884C88.1227 42.0124 89.791 40.8806 91.4806 39.7875C91.8766 39.5554 92.2847 39.345 92.7031 39.1573C93.0894 38.9601 93.4715 39.0373 93.5521 39.466C93.7092 40.4605 94.4224 40.752 95.2077 41.0392C95.5516 41.1678 96.0907 41.245 96.0864 41.6866C96.0822 42.1281 95.5176 42.1152 95.1738 42.2096C94.4713 42.3811 93.8212 42.7241 93.2805 43.2084C93.9066 43.3202 94.5517 43.2333 95.1271 42.9598C96.7643 42.3961 98.2987 41.5648 99.6693 40.4991C99.9528 40.2275 100.331 40.0805 100.722 40.0901C101.113 40.0998 101.484 40.2653 101.754 40.5505C102.895 41.5108 105.574 41.365 106.661 40.3919C107.82 39.4044 109.069 38.5303 110.392 37.7812C111.009 37.4274 111.72 37.2774 112.426 37.3525C112.782 37.3825 113.177 37.3997 113.309 37.7812C113.44 38.1627 113.173 38.3857 112.96 38.6386C111.924 39.8097 110.609 40.695 109.14 41.2107C108.971 41.2646 108.805 41.3276 108.643 41.3993C108.125 41.6394 107.242 41.6008 107.242 42.2996C107.242 42.9983 108.032 43.3413 108.664 43.5599C111.114 44.4173 113.661 44.3144 116.191 44.2801C118.03 44.2911 119.844 43.8497 121.476 42.9941C121.933 42.7158 122.475 42.6152 123 42.7111V43.3542C120.669 44.7817 118.19 45.6348 115.41 45.5233C113.33 45.4419 111.245 45.5019 109.199 45.0475C107.76 44.7302 106.393 44.263 105.735 42.7326C105.515 42.2138 105.052 42.1624 104.589 42.141C103.532 42.0895 102.467 42.0767 101.418 42.0081C100.845 41.9695 100.612 42.3339 100.361 42.7326C99.8348 43.5895 99.0261 44.2315 98.0774 44.5459C97.534 44.7303 96.8548 44.9017 96.4557 44.4988C95.8487 43.8857 95.2671 44.0443 94.6177 44.2158C94.0046 44.3862 93.3662 44.4443 92.7328 44.3873C92.3423 44.3487 91.9475 44.2887 91.7862 43.8429C91.7107 43.6399 91.6987 43.4184 91.7518 43.2084C91.805 42.9983 91.9207 42.8098 92.0834 42.6683C92.4824 42.2781 92.9324 41.9266 93.3187 41.5751C92.6395 40.602 91.99 40.5848 91.0561 41.2922C89.2736 42.6919 87.3222 43.8573 85.2488 44.7603C84.672 45.0309 84.0529 45.1977 83.4192 45.2533C83.2296 45.2906 83.033 45.2615 82.8619 45.1708C82.6908 45.0801 82.5555 44.9331 82.4783 44.7542C82.4011 44.5753 82.3866 44.3752 82.4373 44.1869C82.488 43.9986 82.6008 43.8334 82.757 43.7185C83.5296 42.9683 84.5272 42.5568 85.3762 41.9223C85.5969 41.7594 85.8729 41.6437 86.0002 41.2407C84.7481 41.6295 83.5616 42.2076 82.4811 42.9555C80.7533 44.0615 79.085 45.2532 77.3573 46.355C76.8691 46.6679 76.1432 47.3838 75.7145 46.7622C75.1966 46.0163 76.1602 45.6433 76.6611 45.2704C77.5993 44.5716 78.6138 43.9843 79.4161 43.1269C79.5859 42.9469 79.8407 42.754 79.7515 42.4968C79.6581 42.1538 79.2973 42.2053 79.0426 42.1753C78.3005 42.1215 77.5567 42.254 76.8776 42.5611C75.1083 43.1792 73.5403 44.2748 72.3439 45.7291C71.9584 46.2384 71.5121 46.6977 71.0152 47.0966C70.0176 47.8725 69.5549 47.6367 69.4318 46.2735C67.5597 47.2381 65.7174 48.1683 63.9132 49.15C63.6306 49.3623 63.4009 49.6382 63.2425 49.956C61.12 53.1497 58.9975 56.3563 56.875 59.55C56.6033 59.9649 56.298 60.3563 55.9623 60.7203C55.9099 60.7938 55.8433 60.8559 55.7666 60.9028C55.6898 60.9496 55.6045 60.9804 55.5157 60.9932C55.427 61.006 55.3365 61.0006 55.2499 60.9773C55.1632 60.954 55.0821 60.9132 55.0114 60.8575C54.6421 60.5488 55.0114 60.2616 55.1387 60.0216C56.8138 57.1635 58.636 54.3961 60.5979 51.7307C60.8848 51.4747 61.0753 51.1264 61.137 50.7447C59.912 51.2113 58.7348 51.7971 57.6221 52.4938C57.4999 52.5664 57.3949 52.6649 57.3142 52.7826C57.2336 52.9003 57.1793 53.0344 57.1551 53.1754C57.0957 53.4841 57.2188 54.0328 56.6839 53.9342C56.4084 53.8611 56.1532 53.7254 55.9376 53.5374C55.722 53.3495 55.5518 53.1142 55.4401 52.8496C55.2024 52.3738 55.733 52.258 55.992 52.108C57.1297 51.4649 58.2716 50.8219 59.4475 50.2603C62.2065 48.8946 64.7282 47.0864 66.9145 44.906C68.4427 43.427 70.0176 41.9995 71.5628 40.542C71.9414 40.2709 72.2536 39.9161 72.4755 39.5045C72.051 39.243 71.7284 39.5688 71.4142 39.7146C69.5488 40.5651 67.7785 41.6142 66.1334 42.844C63.302 44.9617 60.4366 47.0366 57.4523 48.9314C57.0915 49.1586 56.7264 49.3601 56.3528 49.5744C56.2392 49.662 56.0977 49.7043 55.9552 49.6933C55.8127 49.6822 55.6792 49.6185 55.5802 49.5144C55.4747 49.3949 55.4192 49.2388 55.4256 49.0788C55.4319 48.9188 55.4995 48.7676 55.6142 48.657C55.955 48.297 56.3256 47.9672 56.7221 47.671C59.0484 45.9349 61.5488 44.4645 63.9599 42.8526C65.3735 41.9095 66.7956 40.9749 67.8272 39.5731C68.5828 38.5486 68.4852 38.1499 67.2711 38.0684C64.6307 37.897 62.1431 38.0684 60.0545 40.2119C56.6251 43.7096 52.739 46.7182 48.5037 49.1543C47.0901 49.9688 45.6468 50.7319 43.9106 50.4104C42.9937 50.2432 42.7475 49.7931 43.2059 48.91C43.7482 47.9835 44.4701 47.1772 45.3284 46.5393C49.5441 43.0714 54.2858 40.3124 59.371 38.3685C60.3699 38.0124 61.2655 37.4114 61.9775 36.6195C63.6755 34.6946 65.3396 32.7613 66.5706 30.5021C67.0621 29.5958 67.4305 28.6268 67.6659 27.6213C68.0352 26.0523 67.4579 25.0492 65.9127 24.6676C64.3675 24.2861 62.8223 24.4876 61.2898 24.7019C51.1148 26.0868 41.2628 29.2798 32.19 34.1331C31.4218 34.4733 30.7312 34.9694 30.1609 35.5906C30.2331 35.6892 30.2628 35.7621 30.3095 35.7835C30.7085 35.9421 31.4811 35.7835 31.4344 36.2851C31.3877 36.7867 30.6321 36.8638 30.11 36.8638C29.5878 36.8638 28.9723 37.0353 28.7091 36.4051C28.4459 35.7749 28.8237 35.2519 29.2864 34.8147C30.1648 34.0423 31.1395 33.3894 32.1858 32.8727C38.3963 29.4947 45.0653 27.3641 51.8403 25.5164C55.0357 24.6397 58.2864 23.9837 61.57 23.553C61.7371 23.5124 61.8994 23.4535 62.0539 23.3773H65.0212ZM59.0145 39.8046C55.4826 40.4777 45.061 47.4696 44.2544 49.8531C50.1338 47.641 54.5317 43.6714 58.9975 39.8046H59.0145ZM111.674 38.4414C110.448 38.6686 109.361 39.3778 108.652 40.4134C109.806 39.8218 110.808 39.3931 111.674 38.4414Z" fill="white"></path></svg>