<svg xmlns="http://www.w3.org/2000/svg" width="48" height="17" viewBox="0 0 48 17" fill="none"><path d="M39.4243 13.6233C39.4478 13.5379 39.3934 13.5688 39.4243 13.6233C39.3625 13.5144 39.3006 13.4055 39.2388 13.2966C39.2697 13.351 39.3006 13.4055 39.3551 13.3745C39.1327 12.3488 40.1921 11.1712 40.6525 10.3337C41.0895 9.58152 41.5809 8.79845 42.0488 8.10075C32.2892 12.8506 20.5448 13.4711 10.3742 9.38177C6.93745 8.02112 3.66538 6.0629 1.59252 2.91969C1.04339 2.07944 0.441178 0.765298 0.0157174 0.14284C3.60491 5.4492 10.8758 7.7289 16.8998 8.70049C23.0092 9.69561 29.3479 9.19244 35.1932 7.3133C36.9033 6.7743 38.606 6.09547 40.1923 5.33868C38.5616 5.25659 36.9618 5.22896 35.3856 5.11596C35.2458 5.12334 34.6745 3.86365 34.5508 3.64586C34.4581 3.48252 33.9412 2.19191 33.716 2.17576C37.7928 2.38097 41.924 2.55526 46.0008 2.76047C46.1406 2.75308 47.6939 5.6153 47.6394 5.64622C46.2681 7.28896 45.013 9.00968 43.8434 10.7539C43.2431 11.5988 42.7281 12.4673 42.2132 13.3357C41.7218 14.1188 40.9346 15.1418 40.901 16.0969C40.9628 16.2058 40.9937 16.2603 41.11 16.3383C41.0791 16.2838 40.9628 16.2058 40.9319 16.1514L40.901 16.0969C40.2739 15.373 39.7718 14.362 39.4243 13.6233ZM40.8391 15.9881C40.7773 15.8792 40.6846 15.7158 40.6227 15.6069C40.6301 15.7467 40.6919 15.8556 40.8391 15.9881Z" fill="white"/></svg>