<svg xmlns="http://www.w3.org/2000/svg" width="69" height="68" viewBox="0 0 69 68" fill="none"><path fill-rule="evenodd" clip-rule="evenodd" d="M17.3486 33.0173C17.8696 33.0173 18.292 33.4397 18.292 33.9607C18.292 42.7769 25.4645 49.9494 34.2807 49.9494C43.097 49.9494 50.2695 42.7769 50.2695 33.9607C50.2695 33.4397 50.6919 33.0173 51.2128 33.0173H67.2979C67.8189 33.0173 68.2413 33.4397 68.2413 33.9607V38.1697C68.2413 39.3847 67.4088 40.3975 66.2168 40.6325L62.1693 41.4304L59.2826 48.398L61.5807 51.8248C62.2575 52.8336 62.13 54.1385 61.2708 54.9978L55.3181 60.9504C54.4587 61.8096 53.154 61.9369 52.1449 61.2601L48.7181 58.9621L41.7507 61.8488L40.9526 65.8963C40.7174 67.0884 39.7047 67.921 38.4899 67.9211H30.0713C28.8564 67.921 27.8438 67.0885 27.6086 65.8964L26.8105 61.8486L19.8432 58.9621L16.4162 61.2602C15.4074 61.9368 14.1024 61.8097 13.2432 60.9506L7.29041 54.9978C6.43147 54.1387 6.30411 52.834 6.98061 51.8249L9.27871 48.398L6.39221 41.4304L2.34481 40.6325C1.15282 40.3976 0.32019 39.3848 0.32019 38.1697V33.9607C0.32019 33.4397 0.742541 33.0173 1.26354 33.0173H17.3486ZM2.20676 34.9041V38.1698C2.20676 38.4764 2.40883 38.7223 2.70962 38.7816L7.25277 39.6773C7.56242 39.7384 7.82098 39.9501 7.94173 40.2417L11.215 48.1429C11.3359 48.4344 11.3029 48.7671 11.1271 49.0292L8.54751 52.8757C8.37676 53.1304 8.4078 53.4471 8.6245 53.664L14.5771 59.6166C14.7938 59.8333 15.1105 59.8642 15.3652 59.6935L19.2119 57.114C19.3696 57.0081 19.5529 56.9541 19.7374 56.9541C19.8596 56.9541 19.9822 56.9779 20.0984 57.026L27.9992 60.2991C28.2907 60.42 28.5026 60.6785 28.5637 60.9882L29.4594 65.5315C29.5187 65.8323 29.7646 66.0345 30.0712 66.0345H38.4897C38.7963 66.0345 39.0423 65.8323 39.1016 65.5315L39.9973 60.9883C40.0583 60.6787 40.2701 60.42 40.5617 60.2993L48.4627 57.026C48.7543 56.9052 49.0871 56.9381 49.3492 57.1139L53.1957 59.6933C53.4506 59.8643 53.7671 59.8333 53.9839 59.6165L59.9366 53.6638C60.1535 53.4469 60.1846 53.1302 60.0138 52.8757L57.4341 49.0291C57.2584 48.767 57.2255 48.4343 57.3462 48.1427L60.6196 40.2415C60.7405 39.9501 60.999 39.7383 61.3086 39.6772L65.8518 38.7815C66.1525 38.7222 66.3546 38.4764 66.3546 38.1697L66.3544 34.9041H52.1314C51.6393 44.3239 43.8207 51.8362 34.2806 51.8362C24.7405 51.8362 16.9219 44.3239 16.4298 34.9041H2.20676Z" fill="#97B545"></path><path fill-rule="evenodd" clip-rule="evenodd" d="M34.2807 12.8394C40.9502 12.8394 46.3762 18.2653 46.3762 24.9348C46.3762 28.2557 44.9885 31.4665 42.5691 33.7435C41.527 34.7243 40.9014 35.9062 40.7089 37.2571V41.6361C40.7089 43.0094 39.6562 44.1405 38.3158 44.2673V45.2829C38.3158 46.8761 37.0194 48.1725 35.4262 48.1725H33.1352C31.5421 48.1725 30.2457 46.8762 30.2457 45.2829V44.2673C28.9051 44.1405 27.8526 43.0094 27.8526 41.6361V37.257C27.66 35.9061 27.0343 34.7242 25.9923 33.7435C23.5729 31.4663 22.1853 28.2556 22.1853 24.9348C22.1853 18.2654 27.6113 12.8394 34.2807 12.8394ZM32.1324 44.2801V45.2829C32.1324 45.8359 32.5822 46.2858 33.1352 46.2858H35.4262C35.9792 46.2858 36.4291 45.836 36.4291 45.2829V44.2801H32.1324ZM29.7393 39.5934V41.6361C29.7393 42.0536 30.0791 42.3934 30.4965 42.3934H38.0649C38.4824 42.3934 38.8222 42.0538 38.8222 41.6361V39.5934H29.7393ZM34.2807 14.7261C28.6517 14.7261 24.072 19.3057 24.072 24.9348C24.072 27.7787 25.2131 30.4192 27.2854 32.3697C28.6671 33.6701 29.4898 35.251 29.7309 37.0684C29.7363 37.1095 29.739 37.1509 29.739 37.1924V37.7065H33.4091C33.5188 35.6558 33.2037 34.092 32.9211 32.6938C32.795 32.0693 32.6755 31.4749 32.6116 30.9004C31.0525 30.8636 29.5451 30.1735 28.5082 28.9761C27.2361 27.507 26.8183 25.4461 27.4179 23.5974C27.5102 23.3128 27.7321 23.089 28.0158 22.994C28.2995 22.899 28.6115 22.9444 28.8565 23.116C29.3473 23.4599 30.0213 23.7844 30.8596 24.0808C30.874 24.0859 30.8882 24.0913 30.9023 24.0971C32.2548 24.6503 33.2996 25.6575 33.9026 26.8936C34.2713 26.5122 34.7333 26.1289 35.3042 25.7406C35.0685 23.8159 35.9626 21.9281 37.6592 20.8931C37.6721 20.8852 37.6853 20.8775 37.6988 20.8702C38.3421 20.5195 38.8461 20.1689 39.197 19.8283C39.4117 19.62 39.7123 19.5255 40.0077 19.5745C40.3029 19.6231 40.5575 19.8089 40.6939 20.0753C41.4609 21.5742 41.387 23.3946 40.5008 24.8262C39.6709 26.1668 38.2179 27.021 36.6541 27.1094C34.0519 28.7559 34.2665 29.8258 34.7706 32.3203C35.0575 33.7403 35.4049 35.4627 35.2983 37.7067H38.822V37.1925C38.822 37.151 38.8247 37.1095 38.8302 37.0684C39.0714 35.251 39.8944 33.6701 41.2761 32.3697C43.3484 30.4195 44.4895 27.7789 44.4895 24.9348C44.4895 19.3057 39.9098 14.7261 34.2807 14.7261ZM29.0349 25.375C29.0495 26.2334 29.3608 27.0782 29.9349 27.7411C30.6044 28.5144 31.5702 28.9694 32.5751 29.0141C32.4304 27.6216 31.5441 26.4065 30.2079 25.8515C29.7852 25.7013 29.3937 25.5422 29.0349 25.375ZM39.3308 22.0976C39.1124 22.2372 38.8771 22.376 38.6238 22.5147C37.6948 23.0898 37.1577 24.0785 37.1543 25.1285C37.8686 24.9341 38.4996 24.4747 38.8968 23.8331C39.2213 23.3089 39.3672 22.699 39.3308 22.0976Z" fill="#97B545"></path><path fill-rule="evenodd" clip-rule="evenodd" d="M55.8044 23.9342C57.7111 23.9342 59.541 24.7436 60.8248 26.1549C61.1522 26.5148 61.1522 27.0646 60.8248 27.4245C59.541 28.8357 57.7112 29.645 55.8044 29.645C53.8976 29.645 52.0677 28.8357 50.7839 27.4245C50.4565 27.0645 50.4565 26.5147 50.7839 26.1549C52.0677 24.7436 53.8978 23.9342 55.8044 23.9342ZM55.8044 25.8209C54.7459 25.8209 53.7201 26.1665 52.8811 26.7896C53.72 27.4127 54.7459 27.7582 55.8044 27.7582C56.863 27.7582 57.8889 27.4127 58.7279 26.7896C57.8889 26.1665 56.863 25.8209 55.8044 25.8209Z" fill="#97B545"></path><path fill-rule="evenodd" clip-rule="evenodd" d="M12.757 23.9339C14.6638 23.9339 16.4938 24.7434 17.7775 26.1546C18.105 26.5146 18.105 27.0644 17.7775 27.4242C16.4938 28.8354 14.6638 29.6448 12.757 29.6448C10.8504 29.6448 9.02045 28.8354 7.73669 27.4242C7.40921 27.0642 7.40922 26.5144 7.73669 26.1546C9.02045 24.7434 10.8503 23.9339 12.757 23.9339ZM12.757 25.8207C11.6985 25.8207 10.6726 26.1663 9.83356 26.7895C10.6726 27.4126 11.6985 27.7581 12.757 27.7581C13.8156 27.7581 14.8414 27.4126 15.6804 26.7895C14.8415 26.1663 13.8156 25.8207 12.757 25.8207Z" fill="#97B545"></path><path fill-rule="evenodd" clip-rule="evenodd" d="M51.4932 13.5551C53.1443 12.6016 55.1337 12.3876 56.9512 12.9679C57.4147 13.1158 57.6896 13.5921 57.586 14.0674C57.1796 15.9315 55.9997 17.5474 54.3485 18.5007C53.3081 19.1013 52.1336 19.4084 50.9524 19.4084C50.2588 19.4084 49.5629 19.3025 48.8904 19.0878C48.4269 18.9398 48.152 18.4637 48.2557 17.9882C48.662 16.1242 49.8419 14.5084 51.4932 13.5551ZM55.4525 14.5659C54.4146 14.4456 53.3533 14.6595 52.4364 15.1888C51.5196 15.7181 50.804 16.5305 50.389 17.4896C51.4271 17.6095 52.4883 17.3959 53.4051 16.8667C54.3219 16.3373 55.0374 15.525 55.4525 14.5659Z" fill="#97B545"></path><path fill-rule="evenodd" clip-rule="evenodd" d="M11.6102 12.9677C13.4275 12.3875 15.4169 12.6015 17.0683 13.555C18.7194 14.5083 19.8995 16.1241 20.3058 17.9881C20.4094 18.4634 20.1345 18.9397 19.6711 19.0877C18.9986 19.3023 18.3026 19.4082 17.6089 19.4082C16.4277 19.4082 15.2532 19.1012 14.2129 18.5006C12.5616 17.5472 11.3818 15.9313 10.9755 14.0673C10.8719 13.592 11.1468 13.1157 11.6102 12.9677ZM16.125 15.1887C15.2082 14.6594 14.1466 14.4458 13.1088 14.5658C13.5239 15.5249 14.2394 16.3372 15.1562 16.8665C16.0727 17.3958 17.1339 17.6091 18.1723 17.4894C17.7573 16.5303 17.0417 15.7181 16.125 15.1887Z" fill="#97B545"></path><path fill-rule="evenodd" clip-rule="evenodd" d="M47.0029 3.48437C47.4785 3.38117 47.9545 3.65568 48.1025 4.1191C48.6828 5.93651 48.4685 7.92592 47.5152 9.57718C46.5621 11.2283 44.9462 12.4084 43.082 12.8148C43.0146 12.8295 42.9472 12.8366 42.8806 12.8367C42.4782 12.8367 42.1094 12.5779 41.9824 12.1801C41.4023 10.3626 41.6162 8.37326 42.5695 6.722C43.523 5.07073 45.1388 3.89068 47.0029 3.48437ZM46.5042 5.61769C45.5451 6.03277 44.7329 6.74841 44.2035 7.66521C43.6743 8.58187 43.4606 9.64313 43.5806 10.6813C44.5397 10.2663 45.3521 9.55063 45.8814 8.63383C46.4107 7.71717 46.6243 6.6559 46.5042 5.61769Z" fill="#97B545"></path><path fill-rule="evenodd" clip-rule="evenodd" d="M20.4587 4.1191C20.6067 3.65568 21.0822 3.38076 21.5583 3.48437C23.4223 3.89068 25.0382 5.07073 25.9917 6.722C26.945 8.37312 27.1589 10.3626 26.5788 12.1801C26.4518 12.5778 26.0831 12.8367 25.6807 12.8367C25.6142 12.8366 25.5468 12.8295 25.4793 12.8148C23.6153 12.4085 21.9993 11.2284 21.046 9.57718C20.0927 7.92592 19.8786 5.93651 20.4587 4.1191ZM22.0569 5.61769C21.937 6.6559 22.1506 7.71704 22.6798 8.63383C23.2091 9.55063 24.0214 10.2663 24.9806 10.6813C25.1006 9.64314 24.887 8.58187 24.3578 7.66521C23.8286 6.74841 23.0161 6.03277 22.0569 5.61769Z" fill="#97B545"></path><path fill-rule="evenodd" clip-rule="evenodd" d="M33.6459 0.245557C34.0058 -0.0819197 34.5556 -0.0817849 34.9155 0.245557C36.3267 1.52932 37.1362 3.35915 37.1362 5.26591C37.1362 7.17267 36.3267 9.00265 34.9155 10.2864C34.7356 10.4501 34.5081 10.5318 34.2807 10.5318C34.0534 10.5318 33.8259 10.4501 33.646 10.2864C32.2348 9.00265 31.4252 7.17267 31.4252 5.26591C31.4252 3.35915 32.2346 1.52932 33.6459 0.245557ZM34.2807 2.34243C33.6577 3.18147 33.312 4.20721 33.312 5.26591C33.312 6.32459 33.6576 7.35037 34.2807 8.1894C34.9039 7.35037 35.2495 6.32446 35.2495 5.26591C35.2495 4.20734 34.9039 3.18147 34.2807 2.34243Z" fill="#97B545"></path></svg>