<svg xmlns="http://www.w3.org/2000/svg" width="39" height="25" viewBox="0 0 39 25" fill="none">
                                            <path d="M17.9812 16.6664C17.9812 16.6664 16.9685 11.5913 20.6839 6.10804C24.3993 0.624791 34.468 -0.368097 38.9604 0.103749C38.9604 0.103749 39.6532 10.1232 35.245 14.6728C30.8368 19.2224 23.9693 18.4968 21.9673 18.4532C20.9966 19.2856 20.1381 20.2102 19.4083 21.2093C18.6895 22.1906 18.0383 23.2076 17.458 24.2551C17.2301 24.6263 16.8623 24.6811 16.4945 24.5715C16.1268 24.4619 16.1915 23.9375 16.4194 23.3908C16.6474 22.844 18.5225 18.8591 22.7792 13.5513C27.0359 8.24364 31.4273 6.0253 33.1833 4.88817C33.1833 4.88258 25.5829 5.90343 17.9812 16.6664Z" fill="currentColor"></path>
                                            <path d="M16.8999 17.7309C16.8999 17.7309 16.545 13.2025 12.3907 10.6219C8.23626 8.04127 1.69776 9.11242 0 9.72739C0 9.72739 0.786072 15.3057 4.71384 18.4342C8.6416 21.5627 15.0092 19.6373 16.2394 18.9809C16.2394 18.9809 10.9597 13.8376 4.5416 12.0318C4.53642 12.0285 10.2112 11.7959 16.8999 17.7309Z" fill="currentColor"></path>
                                        </svg>