<svg xmlns="http://www.w3.org/2000/svg" width="69" height="68" viewBox="0 0 69 68" fill="none"><path d="M42.1093 41.9746C41.9996 41.6028 41.7965 41.2654 41.5193 40.9945C41.2421 40.7236 40.9001 40.5282 40.526 40.427L40.2111 40.3429C40.3471 39.9158 40.4417 39.4767 40.4938 39.0315H41.3347C41.5914 39.0206 41.834 38.911 42.0119 38.7255C42.1897 38.5399 42.289 38.2929 42.289 38.0359C42.289 37.7789 42.1897 37.5319 42.0119 37.3463C41.834 37.1608 41.5914 37.0512 41.3347 37.0403H40.4401C40.3889 36.7376 40.3172 36.4387 40.2254 36.1457L40.7943 35.9525C41.1847 35.8206 41.5313 35.584 41.7963 35.2685C42.0614 34.9529 42.2346 34.5707 42.2972 34.1634L42.6264 32.0272C42.6552 31.7717 42.584 31.5148 42.4279 31.3105C42.2717 31.1061 42.0425 30.9701 41.7883 30.9308C41.5341 30.8915 41.2746 30.952 41.064 31.0997C40.8534 31.2474 40.7081 31.4707 40.6584 31.7231L40.3292 33.8611C40.3216 33.9091 40.3009 33.9541 40.2693 33.991C40.2377 34.028 40.1965 34.0554 40.1503 34.0704L39.3416 34.3459C39.2289 34.1849 39.109 34.0292 38.9838 33.8807C39.1284 33.4481 39.2027 32.9951 39.2038 32.5389C39.2038 31.4201 38.7594 30.347 37.9682 29.5559C37.1771 28.7647 36.104 28.3203 34.9852 28.3203C33.8663 28.3203 32.7933 28.7647 32.0021 29.5559C31.211 30.347 30.7665 31.4201 30.7665 32.5389C30.7677 32.9951 30.842 33.4481 30.9866 33.8807C30.8226 34.0731 30.6703 34.275 30.5304 34.4855L29.312 34.0704C29.2658 34.0553 29.2247 34.0277 29.1932 33.9908C29.1616 33.9539 29.1408 33.909 29.1331 33.8611L28.8039 31.7231C28.7636 31.4621 28.6212 31.2279 28.4081 31.0718C28.1951 30.9158 27.9288 30.8508 27.6678 30.8912C27.4068 30.9315 27.1726 31.0739 27.0166 31.2869C26.8605 31.5 26.7956 31.7663 26.8359 32.0272L27.1651 34.1634C27.2271 34.5706 27.3999 34.9529 27.6647 35.2685C27.9294 35.584 28.2759 35.8207 28.6661 35.9525L29.6966 36.3103C29.6281 36.5541 29.5726 36.8013 29.5303 37.051H28.1294C27.9951 37.0453 27.861 37.0668 27.7353 37.1143C27.6095 37.1618 27.4947 37.2342 27.3976 37.3272C27.3006 37.4202 27.2234 37.5319 27.1706 37.6555C27.1179 37.7792 27.0907 37.9122 27.0907 38.0466C27.0907 38.1811 27.1179 38.3141 27.1706 38.4377C27.2234 38.5614 27.3006 38.673 27.3976 38.766C27.4947 38.8591 27.6095 38.9315 27.7353 38.9789C27.861 39.0264 27.9951 39.048 28.1294 39.0423H29.4784C29.5253 39.4435 29.6073 39.8398 29.7235 40.2266L28.9381 40.4377C28.5639 40.5383 28.2218 40.7333 27.9446 41.0039C27.6674 41.2746 27.4643 41.6119 27.3547 41.9835L26.8645 43.6653C26.8242 43.7916 26.8097 43.9248 26.8216 44.0569C26.8336 44.189 26.8718 44.3174 26.9341 44.4345C26.9964 44.5516 27.0815 44.655 27.1844 44.7387C27.2872 44.8225 27.4058 44.8848 27.5331 44.922C27.6604 44.9592 27.7939 44.9706 27.9257 44.9555C28.0574 44.9404 28.1849 44.8991 28.3004 44.834C28.416 44.7689 28.5174 44.6814 28.5986 44.5765C28.6799 44.4717 28.7393 44.3516 28.7735 44.2235L29.2655 42.5417C29.2784 42.4996 29.3015 42.4612 29.3327 42.43C29.3639 42.3988 29.4022 42.3758 29.4444 42.3628L30.5876 42.0587C31.6038 43.54 33.1925 44.4954 34.9762 44.4954C36.7134 44.4954 38.2664 43.5883 39.2861 42.1696L40.0018 42.3592C40.0442 42.3717 40.0827 42.3947 40.114 42.4259C40.1452 42.4572 40.1682 42.4958 40.1807 42.5381L40.6709 44.2199C40.7313 44.4265 40.8571 44.6079 41.0293 44.7369C41.2016 44.866 41.411 44.9356 41.6263 44.9355C41.7207 44.9355 41.8146 44.9222 41.9054 44.8962C42.0309 44.8596 42.1479 44.7986 42.2499 44.7167C42.3518 44.6349 42.4366 44.5337 42.4994 44.4191C42.5622 44.3044 42.6018 44.1785 42.6159 44.0486C42.63 43.9186 42.6184 43.7871 42.5816 43.6617L42.1093 41.9746ZM34.9905 30.3043C35.5718 30.3051 36.1299 30.5327 36.5459 30.9387C36.9619 31.3447 37.203 31.897 37.218 32.4781C36.5267 32.1311 35.764 31.9504 34.9905 31.9504C34.2171 31.9504 33.4544 32.1311 32.7631 32.4781C32.7776 31.8968 33.0186 31.3442 33.4347 30.9382C33.8508 30.5321 34.4091 30.3046 34.9905 30.3043ZM34.9905 42.4916C33.7096 42.4916 32.586 41.6758 31.958 40.4538L31.9437 40.4252C31.6022 39.739 31.4263 38.9822 31.4303 38.2157C31.419 37.5907 31.5346 36.9698 31.7701 36.3908C32.0057 35.8117 32.3563 35.2865 32.8007 34.8468C32.8288 34.8238 32.8557 34.7993 32.8812 34.7735C33.4529 34.2377 34.207 33.9395 34.9905 33.9395C35.7741 33.9395 36.5282 34.2377 37.0999 34.7735C37.1254 34.7993 37.1523 34.8238 37.1804 34.8468C37.5264 35.1752 37.8133 35.5607 38.0284 35.9865L38.0409 36.0133C38.3826 36.6971 38.5596 37.4513 38.558 38.2157C38.558 40.5737 36.9478 42.4916 34.9905 42.4916Z" fill="#97B545"></path><path d="M61.1774 24.5202C60.1353 21.5985 58.6134 18.8709 56.6743 16.4496C56.5871 16.3402 56.4778 16.2505 56.3534 16.1863C56.2291 16.1221 56.0926 16.0849 55.9529 16.0771C55.8132 16.0693 55.6735 16.0912 55.5428 16.1412C55.4121 16.1912 55.2935 16.2683 55.1947 16.3673L46.7109 24.8494C46.4313 24.3446 46.0886 23.8775 45.6911 23.4593L43.8752 21.5521L52.105 13.3223C52.2046 13.2228 52.2819 13.1033 52.3319 12.9717C52.3819 12.8401 52.4034 12.6994 52.3949 12.5588C52.3864 12.4183 52.3483 12.2811 52.2829 12.1565C52.2174 12.0318 52.1263 11.9224 52.0155 11.8356C46.6155 7.61899 39.8598 5.52288 33.0213 5.94224C26.1829 6.36159 19.7339 9.26744 14.8895 14.1123C10.0451 18.9571 7.13987 25.4063 6.72114 32.2448C6.30241 39.0833 8.39913 45.8388 12.6162 51.2385C12.702 51.3488 12.81 51.4397 12.9334 51.5054C13.0567 51.5711 13.1925 51.61 13.3319 51.6195H13.3927C13.5233 51.6198 13.6527 51.5941 13.7734 51.5441C13.8941 51.494 14.0037 51.4206 14.0958 51.3279L21.9195 43.5168V48.8339C21.9202 49.0841 21.943 49.3338 21.9875 49.58L17.1569 54.4105C17.0578 54.5097 16.9808 54.6288 16.9309 54.7598C16.8809 54.8908 16.8592 55.0309 16.8671 55.1709C16.8752 55.3097 16.9125 55.4452 16.9766 55.5685C17.0407 55.6918 17.1302 55.8002 17.2392 55.8865C22.012 59.6841 27.8915 61.8242 33.9886 61.9831C40.0858 62.142 46.0689 60.3112 51.033 56.7674C55.9971 53.2237 59.6722 48.1598 61.5025 42.3417C63.3327 36.5236 63.2187 30.2677 61.1774 24.5202ZM27.5211 19.8686C27.4324 19.8686 27.3473 19.8333 27.2845 19.7706C27.2218 19.7079 27.1866 19.6228 27.1866 19.534V17.2941C27.1866 17.2054 27.2218 17.1203 27.2845 17.0575C27.3473 16.9948 27.4324 16.9595 27.5211 16.9595H41.9573C42.046 16.9595 42.1311 16.9948 42.1938 17.0575C42.2566 17.1203 42.2918 17.2054 42.2918 17.2941V19.534C42.2918 19.6228 42.2566 19.7079 42.1938 19.7706C42.1311 19.8333 42.046 19.8686 41.9573 19.8686H27.5211ZM13.5108 49.1113C10.3383 44.6984 8.64078 39.3961 8.66054 33.9612C8.66054 19.5806 20.3594 7.8817 34.7401 7.8817C40.175 7.86193 45.4772 9.55943 49.8901 12.7319L44.2831 18.3425V17.2941C44.2831 16.6773 44.038 16.0857 43.6019 15.6495C43.1657 15.2133 42.5741 14.9683 41.9573 14.9683H27.5211C26.9043 14.9683 26.3127 15.2133 25.8765 15.6495C25.4403 16.0857 25.1953 16.6773 25.1953 17.2941V19.534C25.1946 19.8485 25.2576 20.1597 25.3806 20.4491C25.5036 20.7385 25.684 20.9999 25.9109 21.2176L23.764 23.4629C22.5711 24.7225 21.9103 26.394 21.9195 28.1288V40.7007L13.5108 49.1113ZM23.9089 48.8339V48.5548H45.5659V48.8339C45.5654 49.398 45.3411 49.9388 44.9423 50.3376C44.5434 50.7364 44.0027 50.9607 43.4386 50.9612H26.0344C25.47 50.9612 24.9288 50.7371 24.5296 50.3382C24.1304 49.9393 23.9058 49.3983 23.9054 48.8339H23.9089ZM34.7401 60.0408C29.2056 60.0634 23.8108 58.3038 19.3539 55.0224L22.8874 51.4889C23.2737 51.9474 23.7554 52.3159 24.299 52.5687C24.8426 52.8215 25.4349 52.9525 26.0344 52.9524H43.4404C44.531 52.9501 45.5763 52.5158 46.3475 51.7446C47.1187 50.9734 47.553 49.9281 47.5553 48.8375V44.5956C47.561 44.4613 47.5395 44.3272 47.492 44.2015C47.4445 44.0757 47.3721 43.9609 47.2791 43.8638C47.1861 43.7668 47.0744 43.6895 46.9508 43.6368C46.8271 43.584 46.6941 43.5569 46.5597 43.5569C46.4253 43.5569 46.2922 43.584 46.1686 43.6368C46.045 43.6895 45.9333 43.7668 45.8403 43.8638C45.7473 43.9609 45.6748 44.0757 45.6274 44.2015C45.5799 44.3272 45.5584 44.4613 45.5641 44.5956V46.5636H23.9054V28.1288C23.9058 27.6365 23.9819 27.1471 24.1308 26.6779H27.6982C27.962 26.6779 28.2151 26.5731 28.4016 26.3865C28.5882 26.2 28.693 25.947 28.693 25.6831C28.693 25.4193 28.5882 25.1663 28.4016 24.9797C28.2151 24.7932 27.962 24.6884 27.6982 24.6884H25.3617L28.056 21.8581H41.4205L44.1042 24.6884H32.3481C32.0842 24.6884 31.8312 24.7932 31.6447 24.9797C31.4581 25.1663 31.3533 25.4193 31.3533 25.6831C31.3533 25.947 31.4581 26.2 31.6447 26.3865C31.8312 26.5731 32.0842 26.6779 32.3481 26.6779H45.3404C45.3583 26.7315 45.3744 26.7852 45.3887 26.8389C45.3887 26.8639 45.4013 26.889 45.4084 26.914C45.5132 27.3104 45.5661 27.7188 45.5659 28.1288V39.9368C45.5767 40.1936 45.6864 40.4362 45.8719 40.614C46.0574 40.7918 46.3045 40.8911 46.5615 40.8911C46.8185 40.8911 47.0655 40.7918 47.251 40.614C47.4366 40.4362 47.5462 40.1936 47.5571 39.9368V28.1288C47.5566 27.7269 47.5207 27.3258 47.4498 26.9301L55.7976 18.5805C59.079 23.0373 60.8386 28.4321 60.816 33.9666C60.816 48.3401 49.1136 60.0408 34.7365 60.0408H34.7401Z" fill="#97B545"></path><path d="M58.7514 9.94452C53.1953 4.38949 45.885 0.932764 38.066 0.163309C30.247 -0.606146 22.4031 1.35927 15.8707 5.7247C9.33838 10.0901 4.52172 16.5855 2.24142 24.104C-0.0388838 31.6226 0.358263 39.6992 3.36519 46.9578C6.37212 54.2164 11.8028 60.2079 18.7319 63.9114C25.6611 67.6149 33.6599 68.8013 41.3657 67.2684C49.0715 65.7356 56.0074 61.5783 60.9917 55.505C65.9761 49.4317 68.7004 41.818 68.7005 33.9612C68.7127 29.499 67.8396 25.0787 66.1318 20.9562C64.4241 16.8337 61.9155 13.0909 58.7514 9.94452ZM34.7365 65.943C17.105 65.943 2.76192 51.5999 2.76192 33.9702C2.76192 16.3405 17.105 1.9956 34.7365 1.9956C52.368 1.9956 66.7093 16.3387 66.7093 33.9702C66.7093 51.6017 52.3662 65.9341 34.7365 65.9341V65.943Z" fill="#97B545"></path></svg>